<?xml version="1.0" encoding="utf-8"?>
<!-- Generator: Adobe Illustrator 24.0.2, SVG Export Plug-In . SVG Version: 6.00 Build 0)  -->
<svg version="1.1" id="图层_1" xmlns="http://www.w3.org/2000/svg" xmlns:xlink="http://www.w3.org/1999/xlink" x="0px" y="0px"
	 viewBox="0 0 72 72.3" style="enable-background:new 0 0 72 72.3;" xml:space="preserve">
<style type="text/css">
	.st0{fill:#29B5B2;}
</style>
<g>
	<g>
		<path class="st0" d="M23.1,32c0,0,2.3-4.6,6.1-7.1c0,0-2.6-5.5-11.2-9.3c-8.6-3.8-11.2-1.4-13.5,2.7S0.1,26.9,1,29.2
			c0.9,2.3,3.7,0.3,6.3,0C9.7,28.8,21.2,28.7,23.1,32z"/>
		<path class="st0" d="M27.8,8.2c1.5,2,7.1,11.8,5.1,15c0,0,5.2-0.2,9.3,1.9c0,0,3.6-4.9,2.9-14.1C44.4,1.9,41,0.8,36.2,0.8
			c-4.8,0-9.9,0.3-11.5,2.1C23.2,4.7,26.3,6.2,27.8,8.2z"/>
		<path class="st0" d="M63.2,31.2c7.7-5.2,7-8.7,4.6-12.7c-2.4-4.1-5.2-8.2-7.6-8.7c-2.4-0.4-2.2,3-3.2,5.2
			c-1,2.3-6.8,11.9-10.7,11.9c0,0,2.8,4.3,3,8.8C49.3,35.8,55.4,36.5,63.2,31.2z"/>
		<path class="st0" d="M71,42.8c-0.9-2.2-3.7-0.3-6.3,0.1c-2.5,0.4-13.9,0.6-16-2.5c0,0-2.2,4.7-6,7.2c0,0,2.7,5.4,11.4,9.1
			c8.6,3.6,11.2,1.2,13.5-2.9C69.8,49.6,72,45,71,42.8z"/>
		<path class="st0" d="M43.9,64c-1.5-2-7.2-11.7-5.3-15c0,0-5.2,0.3-9.3-1.8c0,0-3.6,4.9-2.8,14.1c0.8,9.2,4.2,10.3,9,10.2
			c4.8,0,9.9-0.3,11.5-2.2C48.5,67.5,45.4,66,43.9,64z"/>
		<path class="st0" d="M8.7,41C1,46.4,1.8,49.8,4.2,53.8c2.4,4,5.3,8.2,7.7,8.6c2.4,0.4,2.2-3,3.2-5.3c1-2.3,6.7-12,10.6-12
			c0,0-2.9-4.3-3.1-8.8C22.5,36.3,16.4,35.7,8.7,41z"/>
		<path class="st0" d="M35.8,45.7c5.4,0,9.8-4.3,9.8-9.6c0-5.3-4.4-9.6-9.8-9.6c-5.4,0-9.8,4.3-9.8,9.6
			C26.1,41.5,30.4,45.7,35.8,45.7z"/>
	</g>
</g>
</svg>
