<?xml version="1.0" encoding="iso-8859-1"?>
<!-- Generator: Adobe Illustrator 24.0.2, SVG Export Plug-In . SVG Version: 6.00 Build 0)  -->
<svg version="1.1" id="&#x56FE;&#x5C42;_1" xmlns="http://www.w3.org/2000/svg" xmlns:xlink="http://www.w3.org/1999/xlink" x="0px"
	 y="0px" viewBox="0 0 422.809 294.624" style="enable-background:new 0 0 422.809 294.624;" xml:space="preserve">
<path style="fill:#4160AC;" d="M195.976,9.383"/>
<linearGradient id="SVGID_1_" gradientUnits="userSpaceOnUse" x1="211.4042" y1="172.6459" x2="211.4042" y2="114.2477">
	<stop  offset="0" style="stop-color:#1664A0;stop-opacity:0.6"/>
	<stop  offset="1" style="stop-color:#15629E;stop-opacity:0.6"/>
</linearGradient>
<path style="fill:url(#SVGID_1_);" d="M207.68,114.248c0,0,11.305,12.153-0.221,31.962c-11.089,20.503,5.356,26.436,5.356,26.436
	s-5.13-10.569,3.464-22.849C226.17,135.64,207.68,114.248,207.68,114.248L207.68,114.248z"/>
<linearGradient id="SVGID_2_" gradientUnits="userSpaceOnUse" x1="232.645" y1="172.6459" x2="232.645" y2="114.2477">
	<stop  offset="0" style="stop-color:#1664A0;stop-opacity:0.6"/>
	<stop  offset="1" style="stop-color:#15629E;stop-opacity:0.6"/>
</linearGradient>
<path style="fill:url(#SVGID_2_);" d="M228.755,114.248c0,0,11.812,12.153-0.234,31.962c-11.59,20.503,5.595,26.436,5.595,26.436
	s-5.362-10.569,3.62-22.849C248.083,135.64,228.755,114.248,228.755,114.248L228.755,114.248z"/>
<linearGradient id="SVGID_3_" gradientUnits="userSpaceOnUse" x1="190.1634" y1="172.6459" x2="190.1634" y2="114.2477">
	<stop  offset="0" style="stop-color:#1664A0;stop-opacity:0.6"/>
	<stop  offset="1" style="stop-color:#15629E;stop-opacity:0.6"/>
</linearGradient>
<path style="fill:url(#SVGID_3_);" d="M186.275,114.248c0,0,11.814,12.153-0.233,31.962c-11.593,20.503,5.595,26.436,5.595,26.436
	s-5.362-10.569,3.617-22.849C205.603,135.64,186.275,114.248,186.275,114.248L186.275,114.248z"/>
</svg>
