<?xml version="1.0" encoding="utf-8"?>
<!-- Generator: Adobe Illustrator 24.0.2, SVG Export Plug-In . SVG Version: 6.00 Build 0)  -->
<svg version="1.1" id="图层_1" xmlns="http://www.w3.org/2000/svg" xmlns:xlink="http://www.w3.org/1999/xlink" x="0px" y="0px"
	 viewBox="0 0 182.3 151.2" style="enable-background:new 0 0 182.3 151.2;" xml:space="preserve">
<style type="text/css">
	.st0{fill:url(#SVGID_1_);}
	.st1{fill:url(#SVGID_2_);}
	.st2{fill:#A45E8C;}
	.st3{fill:#7A325A;}
</style>
<g>
	
		<linearGradient id="SVGID_1_" gradientUnits="userSpaceOnUse" x1="219.7008" y1="-601.7821" x2="219.7008" y2="-647.3264" gradientTransform="matrix(1 0 0 -1 -168.7 -576)">
		<stop  offset="0" style="stop-color:#BA74A7"/>
		<stop  offset="1" style="stop-color:#9A3973"/>
	</linearGradient>
	<polygon class="st0" points="82.3,25.8 19.8,25.8 19.8,71.4 82.3,71.4 	"/>
	
		<linearGradient id="SVGID_2_" gradientUnits="userSpaceOnUse" x1="302.1992" y1="-647.3824" x2="302.1992" y2="-692.9787" gradientTransform="matrix(1 0 0 -1 -168.7 -576)">
		<stop  offset="0" style="stop-color:#BA74A7"/>
		<stop  offset="1" style="stop-color:#9A3973"/>
	</linearGradient>
	<polygon class="st1" points="164.8,71.5 102.2,71.5 102.2,117.1 164.8,117.1 	"/>
	<rect x="39.7" y="117.1" class="st2" width="108.1" height="18.5"/>
	<circle class="st3" cx="93.7" cy="71.9" r="42.6"/>
	<path class="st2" d="M93.7,17.4c-30.1,0-54.5,24.3-54.5,54.5s24.3,54.5,54.5,54.5s54.5-24.3,54.5-54.5S123.8,17.4,93.7,17.4z
		 M93.7,112.7c-22.6,0-40.9-18.3-40.9-40.9S71,31,93.7,31s40.9,18.3,40.9,40.9S116.4,112.7,93.7,112.7z"/>
</g>
</svg>
