<?xml version="1.0" encoding="utf-8"?>
<!-- Generator: Adobe Illustrator 24.0.2, SVG Export Plug-In . SVG Version: 6.00 Build 0)  -->
<svg version="1.1" id="图层_1" xmlns="http://www.w3.org/2000/svg" xmlns:xlink="http://www.w3.org/1999/xlink" x="0px" y="0px"
	 viewBox="0 0 182.3 151.2" style="enable-background:new 0 0 182.3 151.2;" xml:space="preserve">
<style type="text/css">
	.st0{fill:url(#SVGID_1_);}
	.st1{fill:#007474;}
	.st2{fill:url(#SVGID_2_);}
	.st3{fill:#003838;}
</style>
<g>
	
		<linearGradient id="SVGID_1_" gradientUnits="userSpaceOnUse" x1="177.9219" y1="609.6517" x2="177.9219" y2="655.3141" gradientTransform="matrix(1 0 0 1 -126.7502 -584)">
		<stop  offset="0" style="stop-color:#00A1A1"/>
		<stop  offset="1" style="stop-color:#003434"/>
	</linearGradient>
	<polygon class="st0" points="82.4,25.7 19.9,25.7 19.9,71.4 82.4,71.4 	"/>
	<rect x="39.7" y="117.2" class="st1" width="108.4" height="18.5"/>
	
		<linearGradient id="SVGID_2_" gradientUnits="userSpaceOnUse" x1="260.3302" y1="655.3377" x2="260.3302" y2="701.1614" gradientTransform="matrix(1 0 0 1 -126.7502 -584)">
		<stop  offset="0" style="stop-color:#00A1A1"/>
		<stop  offset="1" style="stop-color:#003434"/>
	</linearGradient>
	<polygon class="st2" points="164.9,71.5 102.3,71.5 102.3,117.2 164.9,117.2 	"/>
	<circle class="st3" cx="93.8" cy="71.9" r="42.6"/>
	<path class="st1" d="M93.8,17.2c-30.3,0-54.6,24.5-54.6,54.6s24.5,54.6,54.6,54.6s54.6-24.5,54.6-54.6S124.1,17.2,93.8,17.2z
		 M93.8,112.8c-22.7,0-41-18.3-41-41s18.3-41,41-41s41,18.3,41,41S116.6,112.8,93.8,112.8z"/>
</g>
</svg>
