<?xml version="1.0" encoding="iso-8859-1"?>
<!-- Generator: Adobe Illustrator 24.0.2, SVG Export Plug-In . SVG Version: 6.00 Build 0)  -->
<svg version="1.1" id="&#x56FE;&#x5C42;_1" xmlns="http://www.w3.org/2000/svg" xmlns:xlink="http://www.w3.org/1999/xlink" x="0px"
	 y="0px" viewBox="0 0 221.915 252.054" style="enable-background:new 0 0 221.915 252.054;" xml:space="preserve">
<g>
	<g>
		<polygon style="fill:#7B6098;" points="108.617,192.034 48.639,245.045 48.639,65.818 108.617,12.807 		"/>
		<g>
			<rect x="34.05" y="65.818" style="fill:#3D475A;" width="14.589" height="179.227"/>
			<path style="fill:#1D232D;" d="M48.639,245.676H34.05l-0.631-0.631V65.818l0.631-0.631h14.589l0.631,0.631v179.227
				L48.639,245.676z M34.681,244.414h13.327V66.449H34.681V244.414z"/>
		</g>
		<g>
			<polygon style="fill:#D7D4DC;" points="48.639,65.818 34.05,65.818 94.028,12.807 108.617,12.807 			"/>
			<path style="fill:#1D232D;" d="M48.639,66.449H34.05l-0.418-1.104L93.61,12.334l0.418-0.158h14.589l0.418,1.104L49.057,66.292
				L48.639,66.449z M35.717,65.187H48.4l58.55-51.749H94.267L35.717,65.187z"/>
		</g>
	</g>
	<g>
		<polygon style="fill:#7B6098;" points="138.876,192.034 78.898,245.045 78.898,65.818 138.876,12.807 		"/>
		<g>
			<rect x="64.309" y="65.818" style="fill:#3D475A;" width="14.589" height="179.227"/>
			<path style="fill:#1D232D;" d="M78.898,245.676H64.309l-0.631-0.631V65.818l0.631-0.631h14.589l0.631,0.631v179.227
				L78.898,245.676z M64.94,244.414h13.327V66.449H64.94V244.414z"/>
		</g>
		<g>
			<polygon style="fill:#D7D4DC;" points="78.898,65.818 64.309,65.818 124.287,12.807 138.876,12.807 			"/>
			<path style="fill:#1D232D;" d="M78.898,66.449H64.309l-0.418-1.104l59.977-53.011l0.418-0.158h14.59l0.418,1.104L79.316,66.292
				L78.898,66.449z M65.975,65.187h12.683l58.551-51.749h-12.684L65.975,65.187z"/>
		</g>
	</g>
	<g>
		<polygon style="fill:#7B6098;" points="169.135,192.034 109.157,245.045 109.157,65.818 169.135,12.807 		"/>
		<g>
			<rect x="94.568" y="65.818" style="fill:#3D475A;" width="14.589" height="179.227"/>
			<path style="fill:#1D232D;" d="M109.158,245.676h-14.59l-0.631-0.631V65.818l0.631-0.631h14.59l0.631,0.631v179.227
				L109.158,245.676z M95.199,244.414h13.328V66.449H95.199V244.414z"/>
		</g>
		<g>
			<polygon style="fill:#D7D4DC;" points="109.157,65.818 94.568,65.818 154.546,12.807 169.135,12.807 			"/>
			<path style="fill:#1D232D;" d="M109.158,66.449h-14.59l-0.418-1.104l59.979-53.011l0.418-0.158h14.589l0.418,1.104
				l-59.977,53.011L109.158,66.449z M96.234,65.187h12.684l58.55-51.749h-12.683L96.234,65.187z"/>
		</g>
	</g>
	<g>
		<polygon style="fill:#7B6098;" points="199.394,192.034 139.416,245.045 139.416,65.818 199.394,12.807 		"/>
		<g>
			<rect x="124.827" y="65.818" style="fill:#3D475A;" width="14.589" height="179.227"/>
			<path style="fill:#1D232D;" d="M139.416,245.676h-14.589l-0.631-0.631V65.818l0.631-0.631h14.589l0.631,0.631v179.227
				L139.416,245.676z M125.459,244.414h13.327V66.449h-13.327V244.414z"/>
		</g>
		<g>
			<polygon style="fill:#D7D4DC;" points="139.416,65.818 124.827,65.818 184.805,12.807 199.394,12.807 			"/>
			<path style="fill:#1D232D;" d="M139.416,66.449h-14.589l-0.418-1.104l59.977-53.011l0.418-0.158h14.589l0.418,1.104
				l-59.977,53.011L139.416,66.449z M126.494,65.187h12.683l58.55-51.749h-12.683L126.494,65.187z"/>
		</g>
	</g>
</g>
</svg>
