<?xml version="1.0" encoding="iso-8859-1"?>
<!-- Generator: Adobe Illustrator 24.0.2, SVG Export Plug-In . SVG Version: 6.00 Build 0)  -->
<svg version="1.1" id="&#x56FE;&#x5C42;_1" xmlns="http://www.w3.org/2000/svg" xmlns:xlink="http://www.w3.org/1999/xlink" x="0px"
	 y="0px" viewBox="0 0 200 200" style="enable-background:new 0 0 200 200;" xml:space="preserve">
<g>
	<path style="fill:#5DC4E5;" d="M86.929,105.458c0,0,6.799-6.325,17.881,0.123c11.471,6.204,14.79-2.997,14.79-2.997
		s-5.913,2.87-12.783-1.938C98.898,95.114,86.929,105.458,86.929,105.458L86.929,105.458z"/>
	<path style="fill:#5DC4E5;" d="M86.929,63.057c0,0,6.799-6.608,17.881,0.131c11.471,6.484,14.79-3.13,14.79-3.13
		s-5.913,3-12.783-2.025C98.898,52.244,86.929,63.057,86.929,63.057L86.929,63.057z"/>
	<path style="fill:#5DC4E5;" d="M86.929,84.304c0,0,6.799-6.608,17.881,0.131c11.471,6.484,14.79-3.13,14.79-3.13
		s-5.913,3-12.783-2.025C98.898,73.491,86.929,84.304,86.929,84.304L86.929,84.304z"/>
	<path style="fill:#5DC4E5;" d="M86.929,126.797c0,0,6.799-6.609,17.881,0.13c11.471,6.486,14.79-3.13,14.79-3.13
		s-5.913,3-12.783-2.024C98.898,115.984,86.929,126.797,86.929,126.797L86.929,126.797z"/>
</g>
</svg>
