<svg id="图层_1" data-name="图层 1" xmlns="http://www.w3.org/2000/svg" viewBox="0 0 109.41 47.17"><defs><style>.cls-1{fill:#3a99d9;}.cls-2{fill:#fff;}</style></defs><title>97C9D3B2B4AFFE981AD2C46DD87E8D78</title><rect class="cls-1" width="109.41" height="47.17"/><path class="cls-2" d="M41.23,18.69H31.65V16.06h22.2v2.63H44.24V45.11h-3Z" transform="translate(-12.37 -7.25)"/><path class="cls-2" d="M54.31,35.08c0,4.88,2.5,8.08,6.3,8.08s4.87-2,5.59-3.62H69c-.85,2.73-3.08,6.07-8.5,6.07-6.47,0-9-5.42-9-10.77,0-6.1,3.05-11.17,9.28-11.17,6.59,0,8.72,5.5,8.72,9.68,0,.61,0,1.17,0,1.73Zm12.31-2.17c0-3.82-2.06-6.86-5.93-6.86s-5.83,2.81-6.25,6.86Z" transform="translate(-12.37 -7.25)"/><path class="cls-2" d="M75,24.17c3.23,4.93,4.63,7.09,5.42,8.31h0c1-1.39,2.89-4.28,5.66-8.31h3.14L82.05,34.28l7.29,10.83H86.07c-2.8-4.3-4.79-7.32-5.72-8.74h0c-.75,1.2-2.54,4-5.66,8.74H71.48l7.24-10.55-7-10.39Z" transform="translate(-12.37 -7.25)"/><path class="cls-2" d="M91.12,24.17h3.77V17.8h2.79v6.37h4.82v2.42H97.68v13c0,2.2.5,3.4,2.46,3.4a7.86,7.86,0,0,0,2-.21V45a8.42,8.42,0,0,1-2.84.38c-2.94,0-4.42-1.5-4.42-4.9V26.59H91.12Z" transform="translate(-12.37 -7.25)"/></svg>