<?xml version="1.0" encoding="utf-8"?>
<!-- Generator: Adobe Illustrator 23.0.1, SVG Export Plug-In . SVG Version: 6.00 Build 0)  -->
<svg version="1.1" id="图层_1" xmlns="http://www.w3.org/2000/svg" xmlns:xlink="http://www.w3.org/1999/xlink" x="0px" y="0px"
	 viewBox="0 0 182.3 151.2" style="enable-background:new 0 0 182.3 151.2;" xml:space="preserve">
<style type="text/css">
	.st0{fill:url(#SVGID_1_);}
	.st1{fill:#007474;}
	.st2{fill:url(#SVGID_2_);}
	.st3{fill:#003838;}
	.st4{fill:#29B5B2;}
</style>
<g>
	
		<linearGradient id="SVGID_1_" gradientUnits="userSpaceOnUse" x1="178.1158" y1="-455.6517" x2="178.1158" y2="-501.3517" gradientTransform="matrix(1 0 0 -1 -126.7502 -430)">
		<stop  offset="0" style="stop-color:#00A1A1"/>
		<stop  offset="1" style="stop-color:#003434"/>
	</linearGradient>
	<polygon class="st0" points="82.6,25.7 20.1,25.7 20.1,71.4 82.6,71.4 	"/>
	<rect x="39.9" y="117.2" class="st1" width="108.4" height="18.5"/>
	
		<linearGradient id="SVGID_2_" gradientUnits="userSpaceOnUse" x1="260.5658" y1="-501.3377" x2="260.5658" y2="-547.1614" gradientTransform="matrix(1 0 0 -1 -126.7502 -430)">
		<stop  offset="0" style="stop-color:#00A1A1"/>
		<stop  offset="1" style="stop-color:#003434"/>
	</linearGradient>
	<polygon class="st2" points="165.1,71.5 102.5,71.5 102.5,117.2 165.1,117.2 	"/>
	<circle class="st3" cx="94" cy="71.9" r="42.6"/>
	<path class="st1" d="M94,17.2c-30.3,0-54.6,24.5-54.6,54.6s24.5,54.6,54.6,54.6s54.6-24.5,54.6-54.6S124.3,17.2,94,17.2z M94,112.8
		c-22.7,0-41-18.3-41-41s18.3-41,41-41s41,18.3,41,41S116.8,112.8,94,112.8z"/>
</g>
<g>
	<g>
		<g>
			<path class="st4" d="M80.7,67.6c0,0,2.3-4.6,6.1-7.1c0,0-2.6-5.5-11.2-9.3s-11.2-1.4-13.5,2.7c-2.3,4.1-4.4,8.6-3.5,10.9
				c0.9,2.3,3.7,0.3,6.3,0C67.3,64.4,78.8,64.3,80.7,67.6z"/>
			<path class="st4" d="M85.4,43.8c1.5,2,7.1,11.8,5.1,15c0,0,5.2-0.2,9.3,1.9c0,0,3.6-4.9,2.9-14.1c-0.7-9.1-4.1-10.2-8.9-10.2
				c-4.8,0-9.9,0.3-11.5,2.1C80.8,40.3,83.9,41.8,85.4,43.8z"/>
			<path class="st4" d="M120.8,66.8c7.7-5.2,7-8.7,4.6-12.7c-2.4-4.1-5.2-8.2-7.6-8.7c-2.4-0.4-2.2,3-3.2,5.2
				c-1,2.3-6.8,11.9-10.7,11.9c0,0,2.8,4.3,3,8.8C106.9,71.4,113,72.1,120.8,66.8z"/>
			<path class="st4" d="M128.6,78.4c-0.9-2.2-3.7-0.3-6.3,0.1c-2.5,0.4-13.9,0.6-16-2.5c0,0-2.2,4.7-6,7.2c0,0,2.7,5.4,11.4,9.1
				c8.6,3.6,11.2,1.2,13.5-2.9C127.4,85.2,129.6,80.6,128.6,78.4z"/>
			<path class="st4" d="M101.5,99.6c-1.5-2-7.2-11.7-5.3-15c0,0-5.2,0.3-9.3-1.8c0,0-3.6,4.9-2.8,14.1c0.8,9.2,4.2,10.3,9,10.2
				c4.8,0,9.9-0.3,11.5-2.2C106.1,103.1,103,101.6,101.5,99.6z"/>
			<path class="st4" d="M66.3,76.6c-7.7,5.4-6.9,8.8-4.5,12.8c2.4,4,5.3,8.2,7.7,8.6c2.4,0.4,2.2-3,3.2-5.3c1-2.3,6.7-12,10.6-12
				c0,0-2.9-4.3-3.1-8.8C80.1,71.9,74,71.3,66.3,76.6z"/>
			<path class="st4" d="M93.4,81.3c5.4,0,9.8-4.3,9.8-9.6s-4.4-9.6-9.8-9.6c-5.4,0-9.8,4.3-9.8,9.6C83.7,77.1,88,81.3,93.4,81.3z"/>
		</g>
	</g>
</g>
</svg>
