<?xml version="1.0" encoding="iso-8859-1"?>
<!-- Generator: Adobe Illustrator 24.0.2, SVG Export Plug-In . SVG Version: 6.00 Build 0)  -->
<svg version="1.1" id="&#x56FE;&#x5C42;_1" xmlns="http://www.w3.org/2000/svg" xmlns:xlink="http://www.w3.org/1999/xlink" x="0px"
	 y="0px" viewBox="0 0 369.191 286.085" style="enable-background:new 0 0 369.191 286.085;" xml:space="preserve">
<g>
	<linearGradient id="SVGID_1_" gradientUnits="userSpaceOnUse" x1="94.6082" y1="32.8867" x2="279.6082" y2="32.8867">
		<stop  offset="0" style="stop-color:#1570B8"/>
		<stop  offset="1" style="stop-color:#05162D"/>
	</linearGradient>
	<polygon style="fill:url(#SVGID_1_);" points="269.608,36.387 269.608,16.387 104.608,16.387 104.608,36.387 94.608,49.387 
		279.608,49.387 	"/>
	<rect x="33.608" y="48.387" style="fill:#164673;" width="307" height="205"/>
	<g>
		<g>
			<rect x="24.358" y="50.387" style="fill:#092F51;" width="325.5" height="3"/>
			<rect x="30.358" y="55.887" style="fill:#134271;" width="317" height="3"/>
			<rect x="30.358" y="53.092" style="fill:#0A355E;" width="317" height="3"/>
		</g>
		<g>
			<rect x="24.358" y="62.034" style="fill:#092F51;" width="325.5" height="3"/>
			<rect x="30.358" y="67.534" style="fill:#134271;" width="317" height="3"/>
			<rect x="30.358" y="64.739" style="fill:#0A355E;" width="317" height="3"/>
		</g>
		<g>
			<rect x="24.358" y="73.681" style="fill:#092F51;" width="325.5" height="3"/>
			<rect x="30.358" y="79.181" style="fill:#134271;" width="317" height="3"/>
			<rect x="30.358" y="76.386" style="fill:#0A355E;" width="317" height="3"/>
		</g>
		<g>
			<rect x="24.358" y="85.328" style="fill:#092F51;" width="325.5" height="3"/>
			<rect x="30.358" y="90.828" style="fill:#134271;" width="317" height="3"/>
			<rect x="30.358" y="88.033" style="fill:#0A355E;" width="317" height="3"/>
		</g>
		<g>
			<rect x="24.358" y="96.975" style="fill:#092F51;" width="325.5" height="3"/>
			<rect x="30.358" y="102.475" style="fill:#134271;" width="317" height="3"/>
			<rect x="30.358" y="99.68" style="fill:#0A355E;" width="317" height="3"/>
		</g>
		<g>
			<rect x="24.358" y="108.622" style="fill:#092F51;" width="325.5" height="3"/>
			<rect x="30.358" y="114.122" style="fill:#134271;" width="317" height="3"/>
			<rect x="30.358" y="111.327" style="fill:#0A355E;" width="317" height="3"/>
		</g>
		<g>
			<rect x="24.358" y="120.269" style="fill:#092F51;" width="325.5" height="3"/>
			<rect x="30.358" y="125.769" style="fill:#134271;" width="317" height="3"/>
			<rect x="30.358" y="122.974" style="fill:#0A355E;" width="317" height="3"/>
		</g>
		<g>
			<rect x="24.358" y="131.916" style="fill:#092F51;" width="325.5" height="3"/>
			<rect x="30.358" y="137.416" style="fill:#134271;" width="317" height="3"/>
			<rect x="30.358" y="134.621" style="fill:#0A355E;" width="317" height="3"/>
		</g>
		<g>
			<rect x="24.358" y="143.563" style="fill:#092F51;" width="325.5" height="3"/>
			<rect x="30.358" y="149.063" style="fill:#134271;" width="317" height="3"/>
			<rect x="30.358" y="146.268" style="fill:#0A355E;" width="317" height="3"/>
		</g>
		<g>
			<rect x="24.358" y="155.21" style="fill:#092F51;" width="325.5" height="3"/>
			<rect x="30.358" y="160.71" style="fill:#134271;" width="317" height="3"/>
			<rect x="30.358" y="157.915" style="fill:#0A355E;" width="317" height="3"/>
		</g>
		<g>
			<rect x="24.358" y="166.857" style="fill:#092F51;" width="325.5" height="3"/>
			<rect x="30.358" y="172.357" style="fill:#134271;" width="317" height="3"/>
			<rect x="30.358" y="169.562" style="fill:#0A355E;" width="317" height="3"/>
		</g>
		<g>
			<rect x="24.358" y="178.504" style="fill:#092F51;" width="325.5" height="3"/>
			<rect x="30.358" y="184.004" style="fill:#134271;" width="317" height="3"/>
			<rect x="30.358" y="181.209" style="fill:#0A355E;" width="317" height="3"/>
		</g>
		<g>
			<rect x="24.358" y="190.151" style="fill:#092F51;" width="325.5" height="3"/>
			<rect x="30.358" y="195.651" style="fill:#134271;" width="317" height="3"/>
			<rect x="30.358" y="192.857" style="fill:#0A355E;" width="317" height="3"/>
		</g>
		<g>
			<rect x="24.358" y="201.798" style="fill:#092F51;" width="325.5" height="3"/>
			<rect x="30.358" y="207.298" style="fill:#134271;" width="317" height="3"/>
			<rect x="30.358" y="204.504" style="fill:#0A355E;" width="317" height="3"/>
		</g>
		<g>
			<rect x="24.358" y="213.446" style="fill:#092F51;" width="325.5" height="3"/>
			<rect x="30.358" y="218.946" style="fill:#134271;" width="317" height="3"/>
			<rect x="30.358" y="216.151" style="fill:#0A355E;" width="317" height="3"/>
		</g>
		<g>
			<rect x="24.358" y="225.093" style="fill:#092F51;" width="325.5" height="3"/>
			<rect x="30.358" y="230.593" style="fill:#134271;" width="317" height="3"/>
			<rect x="30.358" y="227.798" style="fill:#0A355E;" width="317" height="3"/>
		</g>
		<g>
			<rect x="24.358" y="236.74" style="fill:#092F51;" width="325.5" height="3"/>
			<rect x="30.358" y="242.24" style="fill:#134271;" width="317" height="3"/>
			<rect x="30.358" y="239.445" style="fill:#0A355E;" width="317" height="3"/>
		</g>
		<g>
			<rect x="24.358" y="248.387" style="fill:#092F51;" width="325.5" height="3"/>
			<rect x="30.358" y="253.887" style="fill:#134271;" width="317" height="3"/>
			<rect x="30.358" y="251.092" style="fill:#0A355E;" width="317" height="3"/>
		</g>
	</g>
	<g>
		<line style="fill:none;stroke:#A6A6A5;stroke-width:2;stroke-miterlimit:10;" x1="23.525" y1="29.387" x2="343.525" y2="29.387"/>
		<line style="fill:none;stroke:#A6A6A5;stroke-width:2;stroke-miterlimit:10;" x1="23.525" y1="40.387" x2="343.525" y2="40.387"/>
		<line style="fill:none;stroke:#8A9198;stroke-width:3;stroke-miterlimit:10;" x1="23.025" y1="28.887" x2="352.025" y2="28.887"/>
		<line style="fill:none;stroke:#8A9198;stroke-width:3;stroke-miterlimit:10;" x1="23.025" y1="39.887" x2="352.025" y2="39.887"/>
		
			<line style="fill:none;stroke:#8A9198;stroke-width:3;stroke-miterlimit:10;" x1="288.525" y1="50.887" x2="310.525" y2="50.887"/>
		
			<line style="fill:none;stroke:#8A9198;stroke-width:3;stroke-miterlimit:10;" x1="288.525" y1="69.887" x2="310.525" y2="69.887"/>
		
			<line style="fill:none;stroke:#8A9198;stroke-width:3;stroke-miterlimit:10;" x1="288.525" y1="88.887" x2="310.525" y2="88.887"/>
		
			<line style="fill:none;stroke:#8A9198;stroke-width:3;stroke-miterlimit:10;" x1="288.525" y1="107.887" x2="310.525" y2="107.887"/>
		
			<line style="fill:none;stroke:#8A9198;stroke-width:3;stroke-miterlimit:10;" x1="288.525" y1="126.887" x2="310.525" y2="126.887"/>
		
			<line style="fill:none;stroke:#8A9198;stroke-width:3;stroke-miterlimit:10;" x1="288.525" y1="145.887" x2="310.525" y2="145.887"/>
		
			<line style="fill:none;stroke:#8A9198;stroke-width:3;stroke-miterlimit:10;" x1="288.525" y1="164.887" x2="310.525" y2="164.887"/>
		
			<line style="fill:none;stroke:#8A9198;stroke-width:3;stroke-miterlimit:10;" x1="288.525" y1="183.887" x2="310.525" y2="183.887"/>
		
			<line style="fill:none;stroke:#8A9198;stroke-width:3;stroke-miterlimit:10;" x1="288.525" y1="202.887" x2="310.525" y2="202.887"/>
		
			<line style="fill:none;stroke:#8A9198;stroke-width:3;stroke-miterlimit:10;" x1="288.525" y1="221.887" x2="310.525" y2="221.887"/>
		
			<line style="fill:none;stroke:#8A9198;stroke-width:3;stroke-miterlimit:10;" x1="288.525" y1="240.887" x2="310.525" y2="240.887"/>
		<line style="fill:none;stroke:#8A9198;stroke-width:3;stroke-miterlimit:10;" x1="24.025" y1="26.387" x2="24.025" y2="261.387"/>
		
			<line style="fill:none;stroke:#8A9198;stroke-width:3;stroke-miterlimit:10;" x1="289.025" y1="26.387" x2="289.025" y2="261.387"/>
		
			<line style="fill:none;stroke:#8A9198;stroke-width:3;stroke-miterlimit:10;" x1="311.025" y1="26.387" x2="311.025" y2="261.387"/>
		
			<line style="fill:none;stroke:#8A9198;stroke-width:3;stroke-miterlimit:10;" x1="351.025" y1="26.387" x2="351.025" y2="261.387"/>
	</g>
	<rect x="22.525" y="256.387" style="fill:#717070;" width="330" height="13"/>
</g>
</svg>
