<?xml version="1.0" encoding="iso-8859-1"?>
<!-- Generator: Adobe Illustrator 24.0.2, SVG Export Plug-In . SVG Version: 6.00 Build 0)  -->
<svg version="1.1" id="&#x56FE;&#x5C42;_1" xmlns="http://www.w3.org/2000/svg" xmlns:xlink="http://www.w3.org/1999/xlink" x="0px"
	 y="0px" viewBox="0 0 170.043 154.213" style="enable-background:new 0 0 170.043 154.213;" xml:space="preserve">
<linearGradient id="SVGID_1_" gradientUnits="userSpaceOnUse" x1="40.3989" y1="22.4695" x2="40.3989" y2="71.8047">
	<stop  offset="0" style="stop-color:#B270A0"/>
	<stop  offset="1" style="stop-color:#93386E"/>
</linearGradient>
<rect x="6.718" y="22.469" style="fill:url(#SVGID_1_);" width="67.362" height="49.335"/>
<rect x="28.065" y="121.14" style="fill:#9E5C87;" width="116.697" height="19.924"/>
<linearGradient id="SVGID_2_" gradientUnits="userSpaceOnUse" x1="129.1075" y1="71.8047" x2="129.1075" y2="121.14">
	<stop  offset="0" style="stop-color:#B270A0"/>
	<stop  offset="1" style="stop-color:#93386E"/>
</linearGradient>
<rect x="95.427" y="71.805" style="fill:url(#SVGID_2_);" width="67.362" height="49.335"/>
<circle style="fill:#773158;" cx="86.413" cy="72.279" r="44.117"/>
<g>
	
		<rect x="62.576" y="29.449" transform="matrix(0.7071 -0.7071 0.7071 0.7071 -13.6854 62.4207)" style="fill:#B38F1A;" width="11.859" height="36.562"/>
	
		<rect x="89.621" y="44.409" transform="matrix(0.5067 -0.8621 0.8621 0.5067 9.6997 117.6305)" style="fill:#B38F1A;" width="36.042" height="11.859"/>
	<rect x="98.984" y="77.734" style="fill:#B38F1A;" width="31.072" height="11.859"/>
	<rect x="79.061" y="81.055" style="fill:#B38F1A;" width="11.859" height="38.187"/>
	
		<rect x="38.372" y="71.212" transform="matrix(0.9934 -0.1144 0.1144 0.9934 -8.4447 7.1505)" style="fill:#B38F1A;" width="39.395" height="11.859"/>
</g>
<path style="fill:#9E5C87;" d="M86.413,13.456c-32.487,0-58.823,26.336-58.823,58.823s26.336,58.823,58.823,58.823
	s58.823-26.336,58.823-58.823S118.9,13.456,86.413,13.456z M86.413,116.396c-24.365,0-44.117-19.752-44.117-44.117
	s19.752-44.117,44.117-44.117c24.365,0,44.117,19.752,44.117,44.117S110.779,116.396,86.413,116.396z"/>
<circle style="fill:#9E5C87;" cx="86.413" cy="71.805" r="26.091"/>
</svg>
