<?xml version="1.0" encoding="utf-8"?>
<!-- Generator: Adobe Illustrator 23.0.1, SVG Export Plug-In . SVG Version: 6.00 Build 0)  -->
<svg version="1.1" id="图层_1" xmlns="http://www.w3.org/2000/svg" xmlns:xlink="http://www.w3.org/1999/xlink" x="0px" y="0px"
	 viewBox="0 0 182.3 151.2" style="enable-background:new 0 0 182.3 151.2;" xml:space="preserve">
<style type="text/css">
	.st0{fill:url(#SVGID_1_);}
	.st1{fill:url(#SVGID_2_);}
	.st2{fill:#A45E8C;}
	.st3{fill:#7A325A;}
	.st4{fill:#E09684;}
</style>
<g>
	
		<linearGradient id="SVGID_1_" gradientUnits="userSpaceOnUse" x1="219.75" y1="1369.8" x2="219.75" y2="1415.3444" gradientTransform="matrix(1 0 0 1 -168.7 -1344)">
		<stop  offset="0" style="stop-color:#BA74A7"/>
		<stop  offset="1" style="stop-color:#9A3973"/>
	</linearGradient>
	<polygon class="st0" points="82.3,25.8 19.8,25.8 19.8,71.4 82.3,71.4 	"/>
	
		<linearGradient id="SVGID_2_" gradientUnits="userSpaceOnUse" x1="302.2" y1="1415.3823" x2="302.2" y2="1460.9824" gradientTransform="matrix(1 0 0 1 -168.7 -1344)">
		<stop  offset="0" style="stop-color:#BA74A7"/>
		<stop  offset="1" style="stop-color:#9A3973"/>
	</linearGradient>
	<polygon class="st1" points="164.8,71.5 102.2,71.5 102.2,117.1 164.8,117.1 	"/>
	<rect x="39.7" y="117.1" class="st2" width="108.1" height="18.5"/>
	<circle class="st3" cx="93.7" cy="71.9" r="42.6"/>
	<path class="st2" d="M93.7,17.4c-30.1,0-54.5,24.3-54.5,54.5s24.3,54.5,54.5,54.5s54.5-24.3,54.5-54.5S123.8,17.4,93.7,17.4z
		 M93.7,112.7c-22.6,0-40.9-18.3-40.9-40.9S71,31,93.7,31s40.9,18.3,40.9,40.9S116.4,112.7,93.7,112.7z"/>
</g>
<g>
	<g>
		<g>
			<path class="st4" d="M81.1,68c0,0,2.3-4.6,6.1-7.1c0,0-2.6-5.5-11.2-9.3c-8.6-3.8-11.2-1.4-13.5,2.7c-2.2,4.1-4.4,8.6-3.5,10.9
				c0.9,2.3,3.7,0.3,6.3,0C67.7,64.8,79.2,64.7,81.1,68z"/>
			<path class="st4" d="M85.8,44.2c1.5,2,7.1,11.8,5.1,15c0,0,5.2-0.2,9.3,1.9c0,0,3.6-4.9,2.9-14.1c-0.7-9.1-4.1-10.2-8.9-10.2
				c-4.8,0-9.9,0.3-11.5,2.1C81.2,40.7,84.3,42.2,85.8,44.2z"/>
			<path class="st4" d="M121.2,67.2c7.7-5.2,7-8.7,4.6-12.7c-2.4-4.1-5.2-8.2-7.6-8.7c-2.4-0.4-2.2,3-3.2,5.2
				c-1,2.3-6.8,11.9-10.7,11.9c0,0,2.8,4.3,3,8.8C107.3,71.8,113.4,72.5,121.2,67.2z"/>
			<path class="st4" d="M129,78.8c-0.9-2.2-3.7-0.3-6.3,0.1c-2.5,0.4-13.9,0.6-16-2.5c0,0-2.2,4.7-6,7.2c0,0,2.7,5.4,11.4,9.1
				c8.6,3.6,11.2,1.2,13.5-2.9C127.8,85.6,130,81,129,78.8z"/>
			<path class="st4" d="M101.9,100c-1.5-2-7.2-11.7-5.3-15c0,0-5.2,0.3-9.3-1.8c0,0-3.6,4.9-2.8,14.1c0.8,9.2,4.2,10.3,9,10.2
				c4.8,0,9.9-0.3,11.5-2.2C106.5,103.5,103.4,102,101.9,100z"/>
			<path class="st4" d="M66.7,77c-7.7,5.4-6.9,8.8-4.5,12.8c2.4,4,5.3,8.2,7.7,8.6s2.2-3,3.2-5.3c1-2.3,6.7-12,10.6-12
				c0,0-2.9-4.3-3.1-8.8C80.5,72.3,74.4,71.7,66.7,77z"/>
			<path class="st4" d="M93.8,81.7c5.4,0,9.8-4.3,9.8-9.6c0-5.3-4.4-9.6-9.8-9.6c-5.4,0-9.8,4.3-9.8,9.6
				C84.1,77.5,88.4,81.7,93.8,81.7z"/>
		</g>
	</g>
</g>
</svg>
