<?xml version="1.0" encoding="iso-8859-1"?>
<!-- Generator: Adobe Illustrator 24.0.2, SVG Export Plug-In . SVG Version: 6.00 Build 0)  -->
<svg version="1.1" id="&#x56FE;&#x5C42;_1" xmlns="http://www.w3.org/2000/svg" xmlns:xlink="http://www.w3.org/1999/xlink" x="0px"
	 y="0px" viewBox="0 0 368.426 200" style="enable-background:new 0 0 368.426 200;" xml:space="preserve">
<g>
	<linearGradient id="SVGID_1_" gradientUnits="userSpaceOnUse" x1="183.8929" y1="161.7701" x2="183.8929" y2="44.7701">
		<stop  offset="0" style="stop-color:#0C5448"/>
		<stop  offset="0.0782" style="stop-color:#2C7161"/>
		<stop  offset="0.1589" style="stop-color:#438C7C"/>
		<stop  offset="0.2399" style="stop-color:#55A495"/>
		<stop  offset="0.3203" style="stop-color:#62B5A7"/>
		<stop  offset="0.3997" style="stop-color:#69C0B3"/>
		<stop  offset="0.4772" style="stop-color:#6CC3B7"/>
		<stop  offset="0.5912" style="stop-color:#6AC1B4"/>
		<stop  offset="0.677" style="stop-color:#64B9AB"/>
		<stop  offset="0.7535" style="stop-color:#5AAB9C"/>
		<stop  offset="0.8246" style="stop-color:#4B9788"/>
		<stop  offset="0.892" style="stop-color:#398071"/>
		<stop  offset="0.9557" style="stop-color:#226659"/>
		<stop  offset="1" style="stop-color:#095448"/>
	</linearGradient>
	<path style="fill:url(#SVGID_1_);" d="M323.327,44.77H44.459c-9.149,0-16.566,26.191-16.566,58.5s7.417,58.5,16.566,58.5h278.867
		c9.149,0,16.566-26.191,16.566-58.5S332.476,44.77,323.327,44.77z"/>
	<g>
		<path style="fill:#0B3A30;" d="M145.932,82.833c2.795,6.049,8.294,12.831,13.014,16.497c-1.1,0.825-2.658,2.474-3.391,3.62
			c-1.146-0.963-2.245-2.154-3.391-3.437c0,0.505,0,1.146-0.046,1.512c-0.596,13.747-1.237,19.016-2.749,20.804
			c-1.1,1.237-2.154,1.65-3.803,1.787c-1.558,0.183-4.308,0.183-7.103,0.045c-0.092-1.237-0.596-3.07-1.375-4.261
			c2.749,0.229,5.407,0.229,6.461,0.229c0.917,0,1.466-0.092,1.925-0.55c1.054-1.054,1.604-5.315,2.108-15.763h-11.226
			c-1.192,8.844-4.17,16.862-15.763,21.033c-0.458-1.099-1.695-2.795-2.658-3.712c10.448-3.436,12.968-10.081,13.93-17.321H123.8
			v-3.025c-1.1,1.146-2.154,2.153-3.254,3.07c-0.779-0.917-2.566-2.566-3.62-3.299c5.362-3.895,9.99-10.264,12.601-17.138
			l4.537,1.329c-2.246,5.499-5.499,10.723-9.165,14.847h26.898c-3.666-4.216-7.332-9.623-9.806-14.663L145.932,82.833z"/>
		<path style="fill:#0B3A30;" d="M179.563,94.472c-2.154,12.052-7.286,20.85-13.701,25.524c-0.733-1.008-2.383-2.658-3.437-3.346
			c5.544-3.666,9.852-10.264,11.96-18.787h-10.448v-4.307h12.005l0.779-0.184L179.563,94.472z M201.604,93.189
			c-3.162,3.437-7.148,7.378-10.356,10.081c3.666,5.453,8.523,9.99,14.068,12.555c-1.008,0.871-2.474,2.613-3.162,3.896
			c-6.827-3.62-12.234-10.081-16.13-17.825v16.725c0,2.612-0.55,3.987-2.108,4.72c-1.558,0.779-3.987,0.963-7.561,0.963
			c-0.229-1.283-0.916-3.483-1.604-4.766c2.566,0.137,4.949,0.137,5.728,0.092c0.733,0,1.054-0.229,1.054-1.008V82.192h4.49v10.951
			c0.871,2.337,1.925,4.628,3.208,6.827c2.933-2.795,6.324-6.553,8.477-9.576L201.604,93.189z"/>
		<path style="fill:#0B3A30;" d="M238.488,104.736c3.345,2.52,7.881,4.582,12.372,5.636c-0.916,0.779-2.107,2.383-2.658,3.391
			c-0.733-0.229-1.374-0.458-2.108-0.687v10.86h-4.078v-0.963h-6.965v1.191h-3.895v-14.113h8.569
			c-2.52-1.512-4.811-3.345-6.645-5.315h-8.294c-1.787,1.879-3.941,3.711-6.415,5.315h9.027v13.885h-4.078v-0.963h-6.461v1.191
			h-3.895v-11.181c-0.825,0.413-1.65,0.779-2.566,1.146c-0.458-1.008-1.512-2.566-2.291-3.299c4.49-1.65,8.111-3.757,10.997-6.095
			h-10.081v-3.757h13.885c1.1-1.375,2.062-2.795,2.749-4.17h-13.564V84.116h14.847v12.144l3.299,0.641
			c-0.642,1.375-1.466,2.749-2.337,4.078h11.226c-1.42-0.917-3.253-1.787-4.857-2.383l1.879-1.787h-4.811V84.116h15.396v12.693
			h-9.119c2.108,0.871,4.399,2.016,5.682,3.07l-1.146,1.1h7.79v3.757H238.488z M222.908,87.736h-7.011v5.453h7.011V87.736z
			 M223.321,113.764h-6.461v5.544h6.461V113.764z M242.017,119.308v-5.544h-6.965v5.544H242.017z M235.235,93.189h7.424v-5.453
			h-7.424V93.189z"/>
	</g>
</g>
</svg>
