<?xml version="1.0" encoding="iso-8859-1"?>
<!-- Generator: Adobe Illustrator 24.0.2, SVG Export Plug-In . SVG Version: 6.00 Build 0)  -->
<svg version="1.1" id="&#x56FE;&#x5C42;_1" xmlns="http://www.w3.org/2000/svg" xmlns:xlink="http://www.w3.org/1999/xlink" x="0px"
	 y="0px" viewBox="0 0 710.809 217.309" style="enable-background:new 0 0 710.809 217.309;" xml:space="preserve">
<g>
	
		<rect x="25.301" y="97.342" transform="matrix(-1 -3.214108e-11 3.214108e-11 -1 450.1028 230.4591)" style="fill:#040000;" width="399.5" height="35.776"/>
	<g>
		
			<linearGradient id="SVGID_1_" gradientUnits="userSpaceOnUse" x1="1070.2094" y1="116.0215" x2="1108.7095" y2="116.0215" gradientTransform="matrix(-1 0 0 1 1713.5106 0)">
			<stop  offset="0.0051" style="stop-color:#DDDDDD"/>
			<stop  offset="0.2657" style="stop-color:#E9E9E9"/>
			<stop  offset="0.3934" style="stop-color:#F0F0F0"/>
			<stop  offset="1" style="stop-color:#767679"/>
		</linearGradient>
		<path style="fill:url(#SVGID_1_);" d="M607.998,211.851h32.106c1.758,0,3.197-1.439,3.197-3.197V23.389
			c0-1.758-1.439-3.197-3.197-3.197h-32.106c-1.758,0-3.197,1.439-3.197,3.197v185.265
			C604.801,210.412,606.24,211.851,607.998,211.851z"/>
		<path style="fill:#040000;" d="M640.104,213.351h-32.106c-2.59,0-4.696-2.107-4.696-4.697V23.389c0-2.59,2.106-4.697,4.696-4.697
			h32.106c2.59,0,4.697,2.107,4.697,4.697v185.265C644.801,211.244,642.694,213.351,640.104,213.351z M607.998,21.692
			c-0.936,0-1.696,0.762-1.696,1.697v185.265c0,0.936,0.761,1.697,1.696,1.697h32.106c0.936,0,1.697-0.762,1.697-1.697V23.389
			c0-0.936-0.762-1.697-1.697-1.697H607.998z"/>
	</g>
	<g>
		<path style="fill:#151515;" d="M604.998,45.852h36.106c1.758,0,3.197-1.439,3.197-3.197V18.389c0-1.758-1.439-3.197-3.197-3.197
			h-36.106c-1.758,0-3.197,1.439-3.197,3.197v24.265C601.802,44.413,603.24,45.852,604.998,45.852z"/>
	</g>
	<ellipse style="fill:#2C2F2E;" cx="533.18" cy="114.851" rx="78.079" ry="63"/>
	<g>
		
			<rect x="517.053" y="70.878" transform="matrix(-1 -5.828284e-11 5.828284e-11 -1 1066.6895 221.5204)" style="fill:#928F91;" width="32.583" height="79.764"/>
		<path style="fill:#040000;" d="M551.136,152.142h-35.583V69.378h35.583V152.142z M518.553,149.142h29.583V72.378h-29.583V149.142z
			"/>
	</g>
	<linearGradient id="SVGID_2_" gradientUnits="userSpaceOnUse" x1="513.3014" y1="55.8511" x2="513.3014" y2="13.8511">
		<stop  offset="0" style="stop-color:#821A1F"/>
		<stop  offset="0.5203" style="stop-color:#B01E23"/>
		<stop  offset="0.734" style="stop-color:#9A1D22"/>
		<stop  offset="1" style="stop-color:#821A1F"/>
	</linearGradient>
	<polygon style="fill:url(#SVGID_2_);" points="514.301,55.851 481.301,50.851 474.301,25.851 496.301,13.851 552.301,13.851 
		552.301,38.851 552.301,55.851 	"/>
	<path style="fill:#151515;" d="M552.301,57.851h-38c-0.101,0-0.2-0.008-0.3-0.022l-33-5c-0.777-0.118-1.414-0.681-1.626-1.438
		l-7-25c-0.251-0.896,0.15-1.849,0.968-2.295l22-12c0.294-0.16,0.623-0.244,0.958-0.244h56c1.104,0,2,0.896,2,2v42
		C554.301,56.956,553.406,57.851,552.301,57.851z M514.452,53.851h35.85v-38h-53.49l-20.154,10.993l6.222,22.223L514.452,53.851z"/>
	<linearGradient id="SVGID_3_" gradientUnits="userSpaceOnUse" x1="568.3014" y1="45.8511" x2="568.3014" y2="13.8511">
		<stop  offset="0" style="stop-color:#821A1F"/>
		<stop  offset="0.5203" style="stop-color:#B01E23"/>
		<stop  offset="0.734" style="stop-color:#9A1D22"/>
		<stop  offset="1" style="stop-color:#821A1F"/>
	</linearGradient>
	<polygon style="fill:url(#SVGID_3_);" points="552.301,13.851 579.301,13.851 584.301,24.851 584.301,34.851 579.301,45.851 
		552.301,45.851 	"/>
	<path style="fill:#151515;" d="M579.301,47.851h-27c-1.104,0-2-0.896-2-2v-32c0-1.104,0.896-2,2-2h27
		c0.784,0,1.496,0.458,1.82,1.173l5,11c0.118,0.26,0.18,0.542,0.18,0.827v10c0,0.285-0.062,0.567-0.18,0.827l-5,11
		C580.797,47.393,580.086,47.851,579.301,47.851z M554.301,43.851h23.712l4.288-9.434v-9.133l-4.288-9.434h-23.712V43.851z"/>
	<linearGradient id="SVGID_4_" gradientUnits="userSpaceOnUse" x1="604.3014" y1="99.8511" x2="604.3014" y2="29.8511">
		<stop  offset="0" style="stop-color:#821A1F"/>
		<stop  offset="0.5203" style="stop-color:#B01E23"/>
		<stop  offset="0.734" style="stop-color:#9A1D22"/>
		<stop  offset="1" style="stop-color:#821A1F"/>
	</linearGradient>
	<polygon style="fill:url(#SVGID_4_);" points="587.301,29.851 606.301,29.851 622.301,50.851 622.301,57.851 656.301,57.851 
		656.301,99.851 608.301,99.851 597.301,79.851 584.301,67.851 572.301,62.851 559.301,59.851 552.301,59.851 552.301,45.851 
		579.301,45.851 584.301,34.851 	"/>
	<path style="fill:#151515;" d="M656.301,101.851h-48c-0.729,0-1.401-0.397-1.752-1.036L595.706,81.1l-12.501-11.539l-11.517-4.799
		l-12.614-2.911h-6.772c-1.104,0-2-0.896-2-2v-14c0-1.104,0.896-2,2-2h25.712l4.468-9.827c0.031-0.069,0.066-0.137,0.105-0.202l3-5
		c0.361-0.603,1.013-0.971,1.715-0.971h19c0.624,0,1.213,0.291,1.591,0.788l16,21c0.266,0.349,0.409,0.774,0.409,1.212v5h32
		c1.104,0,2,0.896,2,2v42C658.301,100.956,657.406,101.851,656.301,101.851z M609.484,97.851h44.817v-38h-32c-1.104,0-2-0.896-2-2
		v-6.325l-14.99-19.675h-16.877l-2.359,3.932l-4.953,10.896c-0.324,0.715-1.036,1.173-1.82,1.173h-25v10h5
		c0.151,0,0.302,0.018,0.45,0.051l13,3c0.108,0.025,0.216,0.06,0.319,0.104l12,5c0.216,0.09,0.415,0.217,0.587,0.376l13,12
		c0.158,0.146,0.292,0.317,0.396,0.506L609.484,97.851z"/>
	<linearGradient id="SVGID_5_" gradientUnits="userSpaceOnUse" x1="636.8014" y1="57.8511" x2="636.8014" y2="29.8511">
		<stop  offset="0" style="stop-color:#821A1F"/>
		<stop  offset="0.5203" style="stop-color:#B01E23"/>
		<stop  offset="0.734" style="stop-color:#9A1D22"/>
		<stop  offset="1" style="stop-color:#821A1F"/>
	</linearGradient>
	<polygon style="fill:url(#SVGID_5_);" points="619.301,29.851 617.301,43.851 622.301,50.851 622.301,57.851 656.301,57.851 
		656.301,29.851 	"/>
	<path style="fill:#151515;" d="M656.301,59.851h-34c-1.104,0-2-0.896-2-2v-6.359l-4.628-6.479
		c-0.299-0.418-0.425-0.936-0.352-1.445l2-14c0.141-0.985,0.984-1.717,1.979-1.717h37c1.104,0,2,0.896,2,2v28
		C658.301,58.956,657.406,59.851,656.301,59.851z M624.301,55.851h30v-24h-33.266l-1.642,11.489l4.535,6.349
		c0.242,0.339,0.372,0.745,0.372,1.162V55.851z"/>
	<linearGradient id="SVGID_6_" gradientUnits="userSpaceOnUse" x1="474.3014" y1="79.8511" x2="474.3014" y2="25.8511">
		<stop  offset="0" style="stop-color:#821A1F"/>
		<stop  offset="0.5203" style="stop-color:#B01E23"/>
		<stop  offset="0.734" style="stop-color:#9A1D22"/>
		<stop  offset="1" style="stop-color:#821A1F"/>
	</linearGradient>
	<polygon style="fill:url(#SVGID_6_);" points="474.301,25.851 453.301,34.851 434.301,53.851 448.301,71.851 472.301,79.851 
		483.301,69.851 493.301,63.851 514.301,55.851 481.301,50.851 	"/>
	<path style="fill:#151515;" d="M472.301,81.851c-0.212,0-0.426-0.033-0.633-0.103l-24-8c-0.374-0.125-0.703-0.357-0.946-0.67
		l-14-18c-0.619-0.796-0.548-1.929,0.165-2.642l19-19c0.18-0.18,0.393-0.324,0.626-0.424l21-9c0.53-0.229,1.133-0.215,1.651,0.034
		c0.521,0.249,0.907,0.71,1.063,1.265l6.651,23.755l31.723,4.807c0.898,0.137,1.592,0.861,1.688,1.765
		c0.098,0.903-0.427,1.759-1.276,2.082l-20.835,7.937l-9.678,5.808l-10.854,9.866C473.273,81.67,472.792,81.851,472.301,81.851z
		 M449.508,70.145l22.314,7.438l10.133-9.212c0.098-0.089,0.204-0.168,0.316-0.235l10-6c0.102-0.061,0.207-0.112,0.317-0.154
		l13.894-5.293l-25.481-3.86c-0.777-0.118-1.414-0.681-1.626-1.438l-6.385-22.802l-18.548,7.949l-17.479,17.479L449.508,70.145z"/>
	<linearGradient id="SVGID_7_" gradientUnits="userSpaceOnUse" x1="445.3014" y1="169.8511" x2="445.3014" y2="53.8511">
		<stop  offset="0" style="stop-color:#821A1F"/>
		<stop  offset="0.5203" style="stop-color:#B01E23"/>
		<stop  offset="0.734" style="stop-color:#9A1D22"/>
		<stop  offset="1" style="stop-color:#821A1F"/>
	</linearGradient>
	<polygon style="fill:url(#SVGID_7_);" points="418.301,92.851 434.301,53.851 448.301,71.851 472.301,79.851 464.301,89.851 
		464.301,134.851 472.301,143.851 448.301,151.851 434.301,169.851 419.301,134.851 	"/>
	<path style="fill:#151515;" d="M434.301,171.851c-0.085,0-0.17-0.006-0.256-0.017c-0.701-0.09-1.304-0.545-1.582-1.195l-15-35
		c-0.101-0.234-0.155-0.485-0.161-0.74l-1-42c-0.007-0.276,0.044-0.551,0.148-0.807l16-39c0.271-0.66,0.873-1.126,1.58-1.223
		c0.702-0.099,1.412,0.19,1.85,0.754l13.628,17.521l23.426,7.809c0.62,0.207,1.1,0.704,1.285,1.331s0.053,1.305-0.356,1.815
		l-7.562,9.452v43.538l7.495,8.432c0.446,0.503,0.61,1.196,0.438,1.846c-0.174,0.649-0.662,1.168-1.3,1.381l-23.426,7.809
		l-13.628,17.521C435.499,171.57,434.914,171.851,434.301,171.851z M421.292,134.417l13.513,31.529l11.918-15.323
		c0.243-0.313,0.572-0.545,0.946-0.67l21.123-7.041l-5.985-6.732c-0.325-0.366-0.505-0.839-0.505-1.329v-45
		c0-0.454,0.154-0.895,0.438-1.249l6.208-7.761l-21.279-7.093c-0.374-0.125-0.703-0.357-0.946-0.67l-11.881-15.275l-14.53,35.419
		L421.292,134.417z"/>
	<linearGradient id="SVGID_8_" gradientUnits="userSpaceOnUse" x1="513.3014" y1="209.8511" x2="513.3014" y2="167.8511">
		<stop  offset="0" style="stop-color:#821A1F"/>
		<stop  offset="0.5203" style="stop-color:#B01E23"/>
		<stop  offset="0.734" style="stop-color:#9A1D22"/>
		<stop  offset="1" style="stop-color:#821A1F"/>
	</linearGradient>
	<polygon style="fill:url(#SVGID_8_);" points="514.301,167.851 481.301,172.851 474.301,197.851 496.301,209.851 552.301,209.851 
		552.301,184.851 552.301,167.851 	"/>
	<path style="fill:#151515;" d="M552.301,211.851h-56c-0.335,0-0.664-0.084-0.958-0.244l-22-12
		c-0.817-0.446-1.219-1.398-0.968-2.295l7-25c0.212-0.758,0.849-1.32,1.626-1.438l33-5c0.1-0.015,0.199-0.022,0.3-0.022h38
		c1.104,0,2,0.896,2,2v42C554.301,210.956,553.406,211.851,552.301,211.851z M496.811,207.851h53.49v-38h-35.85l-31.573,4.784
		l-6.222,22.223L496.811,207.851z"/>
	<linearGradient id="SVGID_9_" gradientUnits="userSpaceOnUse" x1="568.3014" y1="209.8511" x2="568.3014" y2="177.8511">
		<stop  offset="0" style="stop-color:#821A1F"/>
		<stop  offset="0.5203" style="stop-color:#B01E23"/>
		<stop  offset="0.734" style="stop-color:#9A1D22"/>
		<stop  offset="1" style="stop-color:#821A1F"/>
	</linearGradient>
	<polygon style="fill:url(#SVGID_9_);" points="552.301,209.851 579.301,209.851 584.301,198.851 584.301,188.851 579.301,177.851 
		552.301,177.851 	"/>
	<path style="fill:#151515;" d="M579.301,211.851h-27c-1.104,0-2-0.896-2-2v-32c0-1.104,0.896-2,2-2h27
		c0.784,0,1.496,0.458,1.82,1.173l5,11c0.118,0.26,0.18,0.542,0.18,0.827v10c0,0.285-0.062,0.567-0.18,0.827l-5,11
		C580.797,211.393,580.086,211.851,579.301,211.851z M554.301,207.851h23.712l4.288-9.434v-9.133l-4.288-9.434h-23.712V207.851z"/>
	<linearGradient id="SVGID_10_" gradientUnits="userSpaceOnUse" x1="604.3014" y1="193.8511" x2="604.3014" y2="123.8511">
		<stop  offset="0" style="stop-color:#821A1F"/>
		<stop  offset="0.5203" style="stop-color:#B01E23"/>
		<stop  offset="0.734" style="stop-color:#9A1D22"/>
		<stop  offset="1" style="stop-color:#821A1F"/>
	</linearGradient>
	<polygon style="fill:url(#SVGID_10_);" points="587.301,193.851 606.301,193.851 622.301,172.851 622.301,165.851 656.301,165.851 
		656.301,123.851 608.301,123.851 597.301,143.851 584.301,155.851 572.301,160.851 559.301,163.851 552.301,163.851 
		552.301,177.851 579.301,177.851 584.301,188.851 	"/>
	<path style="fill:#151515;" d="M606.301,195.851h-19c-0.702,0-1.354-0.368-1.715-0.971l-3-5c-0.039-0.065-0.074-0.133-0.105-0.202
		l-4.468-9.827h-25.712c-1.104,0-2-0.896-2-2v-14c0-1.104,0.896-2,2-2h6.772l12.614-2.911l11.517-4.799l12.501-11.539l10.844-19.715
		c0.351-0.639,1.022-1.036,1.752-1.036h48c1.104,0,2,0.896,2,2v42c0,1.104-0.896,2-2,2h-32v5c0,0.438-0.144,0.863-0.409,1.212
		l-16,21C607.514,195.56,606.925,195.851,606.301,195.851z M588.434,191.851h16.877l14.99-19.675v-6.325c0-1.104,0.896-2,2-2h32v-38
		h-44.817l-10.431,18.964c-0.104,0.188-0.237,0.359-0.396,0.506l-13,12c-0.172,0.159-0.371,0.286-0.587,0.376l-12,5
		c-0.104,0.044-0.211,0.078-0.319,0.104l-13,3c-0.148,0.033-0.299,0.051-0.45,0.051h-5v10h25c0.784,0,1.496,0.458,1.82,1.173
		l4.953,10.896L588.434,191.851z"/>
	<linearGradient id="SVGID_11_" gradientUnits="userSpaceOnUse" x1="636.8014" y1="193.8511" x2="636.8014" y2="165.8511">
		<stop  offset="0" style="stop-color:#821A1F"/>
		<stop  offset="0.5203" style="stop-color:#B01E23"/>
		<stop  offset="0.734" style="stop-color:#9A1D22"/>
		<stop  offset="1" style="stop-color:#821A1F"/>
	</linearGradient>
	<polygon style="fill:url(#SVGID_11_);" points="619.301,193.851 617.301,179.851 622.301,172.851 622.301,165.851 656.301,165.851 
		656.301,193.851 	"/>
	<path style="fill:#151515;" d="M656.301,195.851h-37c-0.995,0-1.839-0.731-1.979-1.717l-2-14c-0.073-0.51,0.053-1.027,0.352-1.445
		l4.628-6.479v-6.359c0-1.104,0.896-2,2-2h34c1.104,0,2,0.896,2,2v28C658.301,194.956,657.406,195.851,656.301,195.851z
		 M621.036,191.851h33.266v-24h-30v5c0,0.417-0.13,0.823-0.372,1.162l-4.535,6.349L621.036,191.851z"/>
	<linearGradient id="SVGID_12_" gradientUnits="userSpaceOnUse" x1="474.3014" y1="197.8511" x2="474.3014" y2="143.8511">
		<stop  offset="0" style="stop-color:#821A1F"/>
		<stop  offset="0.5203" style="stop-color:#B01E23"/>
		<stop  offset="0.734" style="stop-color:#9A1D22"/>
		<stop  offset="1" style="stop-color:#821A1F"/>
	</linearGradient>
	<polygon style="fill:url(#SVGID_12_);" points="474.301,197.851 453.301,188.851 434.301,169.851 448.301,151.851 472.301,143.851 
		483.301,153.851 493.301,159.851 514.301,167.851 481.301,172.851 	"/>
	<path style="fill:#151515;" d="M474.301,199.851c-0.268,0-0.536-0.054-0.788-0.162l-21-9c-0.233-0.1-0.446-0.244-0.626-0.424
		l-19-19c-0.713-0.713-0.784-1.846-0.165-2.642l14-18c0.243-0.313,0.572-0.545,0.946-0.67l24-8c0.686-0.229,1.443-0.068,1.979,0.418
		l10.854,9.866l9.678,5.808l20.835,7.937c0.85,0.323,1.374,1.179,1.276,2.082c-0.097,0.903-0.79,1.628-1.688,1.765l-31.723,4.807
		l-6.651,23.755c-0.155,0.555-0.542,1.016-1.063,1.265C474.892,199.786,474.597,199.851,474.301,199.851z M454.443,187.165
		l18.548,7.949l6.385-22.802c0.212-0.758,0.849-1.32,1.626-1.438l25.481-3.86l-13.894-5.293c-0.11-0.042-0.216-0.094-0.317-0.154
		l-10-6c-0.112-0.067-0.219-0.146-0.316-0.235l-10.133-9.212l-22.314,7.438l-12.544,16.128L454.443,187.165z"/>
	<linearGradient id="SVGID_13_" gradientUnits="userSpaceOnUse" x1="632.3014" y1="123.8511" x2="632.3014" y2="99.8511">
		<stop  offset="0" style="stop-color:#821A1F"/>
		<stop  offset="0.5203" style="stop-color:#B01E23"/>
		<stop  offset="0.734" style="stop-color:#9A1D22"/>
		<stop  offset="1" style="stop-color:#821A1F"/>
	</linearGradient>
	<rect x="608.301" y="99.851" style="fill:url(#SVGID_13_);" width="48" height="24"/>
	<path style="fill:#151515;" d="M656.301,125.851h-48c-1.104,0-2-0.896-2-2v-24c0-1.104,0.896-2,2-2h48c1.104,0,2,0.896,2,2v24
		C658.301,124.956,657.406,125.851,656.301,125.851z M610.301,121.851h44v-20h-44V121.851z"/>
</g>
</svg>
