<?xml version="1.0" encoding="iso-8859-1"?>
<!-- Generator: Adobe Illustrator 24.0.2, SVG Export Plug-In . SVG Version: 6.00 Build 0)  -->
<svg version="1.1" id="&#x56FE;&#x5C42;_1" xmlns="http://www.w3.org/2000/svg" xmlns:xlink="http://www.w3.org/1999/xlink" x="0px"
	 y="0px" viewBox="0 0 341.045 274.75" style="enable-background:new 0 0 341.045 274.75;" xml:space="preserve">
<g>
	<path style="fill:#B6ACAA;" d="M55.532,89.138c-2.425,11.372-3.951,27.879-3.951,46.251c0,18.372,1.526,34.878,3.951,46.251
		c-1.629-12.925-2.593-28.925-2.593-46.251C52.939,118.062,53.903,102.062,55.532,89.138z"/>
	<path style="fill:#3A2D29;" d="M62.783,197.504c6.561,0,11.88-27.81,11.88-62.116s-5.319-62.116-11.88-62.116
		c-3.047,0-5.827,6.002-7.929,15.865c-1.629,12.925-2.593,28.925-2.593,46.251c0,17.326,0.964,33.326,2.593,46.251
		C56.956,191.502,59.736,197.504,62.783,197.504z"/>
	<linearGradient id="SVGID_1_" gradientUnits="userSpaceOnUse" x1="46.1508" y1="145.2318" x2="46.1508" y2="125.5448">
		<stop  offset="0.0051" style="stop-color:#9EA0A7"/>
		<stop  offset="0.0424" style="stop-color:#A9AAAF"/>
		<stop  offset="0.1312" style="stop-color:#BCBCBF"/>
		<stop  offset="0.2288" style="stop-color:#C9CACB"/>
		<stop  offset="0.3413" style="stop-color:#D1D2D3"/>
		<stop  offset="0.5025" style="stop-color:#D4D4D5"/>
		<stop  offset="1" style="stop-color:#767679"/>
	</linearGradient>
	<path style="fill:url(#SVGID_1_);" d="M65.838,145.232H36.501c-5.543,0-10.037-4.494-10.037-10.037v0c0-5.329,4.32-9.65,9.65-9.65
		h29.724V145.232z"/>
	<linearGradient id="SVGID_2_" gradientUnits="userSpaceOnUse" x1="66.7688" y1="213.1181" x2="66.7688" y2="57.6585">
		<stop  offset="0" style="stop-color:#655757"/>
		<stop  offset="0.0179" style="stop-color:#675959"/>
		<stop  offset="0.1249" style="stop-color:#716364"/>
		<stop  offset="0.2562" style="stop-color:#76696A"/>
		<stop  offset="0.4822" style="stop-color:#786B6C"/>
		<stop  offset="0.5356" style="stop-color:#736465"/>
		<stop  offset="1" style="stop-color:#46322F"/>
	</linearGradient>
	<path style="fill:url(#SVGID_2_);" d="M65.472,57.658c-4.352,0-8.212,12.38-10.619,31.479c2.103-9.863,4.882-15.865,7.929-15.865
		c6.561,0,11.88,27.81,11.88,62.116s-5.319,62.116-11.88,62.116c-3.047,0-5.827-6.002-7.929-15.865
		c2.407,19.099,6.267,31.479,10.619,31.479c7.297,0,13.212-34.801,13.212-77.73C78.684,92.459,72.769,57.658,65.472,57.658z"/>
	<linearGradient id="SVGID_3_" gradientUnits="userSpaceOnUse" x1="82.47" y1="147.6078" x2="82.47" y2="123.1688">
		<stop  offset="0" style="stop-color:#655757"/>
		<stop  offset="0.1581" style="stop-color:#685A59"/>
		<stop  offset="0.2833" style="stop-color:#726361"/>
		<stop  offset="0.3968" style="stop-color:#827370"/>
		<stop  offset="0.4822" style="stop-color:#948782"/>
		<stop  offset="0.4901" style="stop-color:#928480"/>
		<stop  offset="0.5989" style="stop-color:#76635E"/>
		<stop  offset="0.7063" style="stop-color:#604C48"/>
		<stop  offset="0.8105" style="stop-color:#523D39"/>
		<stop  offset="0.91" style="stop-color:#493531"/>
		<stop  offset="1" style="stop-color:#46322F"/>
	</linearGradient>
	<rect x="78.057" y="123.169" style="fill:url(#SVGID_3_);" width="8.825" height="24.439"/>
	<g>
		<linearGradient id="SVGID_4_" gradientUnits="userSpaceOnUse" x1="70.5899" y1="149.6444" x2="70.5899" y2="121.1322">
			<stop  offset="0" style="stop-color:#655757"/>
			<stop  offset="0.117" style="stop-color:#685959"/>
			<stop  offset="0.2097" style="stop-color:#716160"/>
			<stop  offset="0.294" style="stop-color:#7F706D"/>
			<stop  offset="0.3734" style="stop-color:#958783"/>
			<stop  offset="0.4486" style="stop-color:#B2A7A2"/>
			<stop  offset="0.4822" style="stop-color:#C2B8B3"/>
			<stop  offset="0.5171" style="stop-color:#B1A59F"/>
			<stop  offset="0.6202" style="stop-color:#87756D"/>
			<stop  offset="0.7218" style="stop-color:#69544E"/>
			<stop  offset="0.8205" style="stop-color:#55403C"/>
			<stop  offset="0.9148" style="stop-color:#4A3632"/>
			<stop  offset="1" style="stop-color:#46322F"/>
		</linearGradient>
		<rect x="61.765" y="121.132" style="fill:url(#SVGID_4_);" width="17.65" height="28.512"/>
		<linearGradient id="SVGID_5_" gradientUnits="userSpaceOnUse" x1="62.3058" y1="149.6444" x2="62.3058" y2="121.1322">
			<stop  offset="0" style="stop-color:#655757"/>
			<stop  offset="0.117" style="stop-color:#685959"/>
			<stop  offset="0.2097" style="stop-color:#716160"/>
			<stop  offset="0.294" style="stop-color:#7F706D"/>
			<stop  offset="0.3734" style="stop-color:#958783"/>
			<stop  offset="0.4486" style="stop-color:#B2A7A2"/>
			<stop  offset="0.4822" style="stop-color:#C2B8B3"/>
			<stop  offset="0.5171" style="stop-color:#B1A59F"/>
			<stop  offset="0.6202" style="stop-color:#87756D"/>
			<stop  offset="0.7218" style="stop-color:#69544E"/>
			<stop  offset="0.8205" style="stop-color:#55403C"/>
			<stop  offset="0.9148" style="stop-color:#4A3632"/>
			<stop  offset="1" style="stop-color:#46322F"/>
		</linearGradient>
		<ellipse style="fill:url(#SVGID_5_);" cx="62.306" cy="135.388" rx="3.532" ry="14.256"/>
	</g>
	<linearGradient id="SVGID_6_" gradientUnits="userSpaceOnUse" x1="88.9178" y1="156.7725" x2="88.9178" y2="114.0041">
		<stop  offset="0.0051" style="stop-color:#9EA0A7"/>
		<stop  offset="0.0424" style="stop-color:#A9AAAF"/>
		<stop  offset="0.1312" style="stop-color:#BCBCBF"/>
		<stop  offset="0.2288" style="stop-color:#C9CACB"/>
		<stop  offset="0.3413" style="stop-color:#D1D2D3"/>
		<stop  offset="0.5025" style="stop-color:#D4D4D5"/>
		<stop  offset="1" style="stop-color:#767679"/>
	</linearGradient>
	<ellipse style="fill:url(#SVGID_6_);" cx="88.918" cy="135.388" rx="5.429" ry="21.384"/>
	<linearGradient id="SVGID_7_" gradientUnits="userSpaceOnUse" x1="106.2935" y1="156.7725" x2="106.2935" y2="114.0041">
		<stop  offset="0.0051" style="stop-color:#9EA0A7"/>
		<stop  offset="0.0424" style="stop-color:#A9AAAF"/>
		<stop  offset="0.1312" style="stop-color:#BCBCBF"/>
		<stop  offset="0.2288" style="stop-color:#C9CACB"/>
		<stop  offset="0.3413" style="stop-color:#D1D2D3"/>
		<stop  offset="0.5025" style="stop-color:#D4D4D5"/>
		<stop  offset="1" style="stop-color:#767679"/>
	</linearGradient>
	<rect x="88.367" y="114.004" style="fill:url(#SVGID_7_);" width="35.853" height="42.768"/>
	<g>
		<g>
			<linearGradient id="SVGID_8_" gradientUnits="userSpaceOnUse" x1="61.4253" y1="125.5448" x2="61.4253" y2="69.5386">
				<stop  offset="0" style="stop-color:#49332B"/>
				<stop  offset="0.1395" style="stop-color:#4B342D"/>
				<stop  offset="0.2376" style="stop-color:#4F3932"/>
				<stop  offset="0.3232" style="stop-color:#56413B"/>
				<stop  offset="0.4014" style="stop-color:#604C47"/>
				<stop  offset="0.474" style="stop-color:#6C5B59"/>
				<stop  offset="0.533" style="stop-color:#786B6C"/>
				<stop  offset="0.6144" style="stop-color:#6C5A58"/>
				<stop  offset="0.7218" style="stop-color:#5D4943"/>
				<stop  offset="0.8245" style="stop-color:#523D36"/>
				<stop  offset="0.9197" style="stop-color:#4C352E"/>
				<stop  offset="1" style="stop-color:#49332B"/>
			</linearGradient>
			<polygon style="fill:url(#SVGID_8_);" points="56.383,83.054 61.765,125.545 66.517,123.169 65.838,69.539 56.334,73.612 			"/>
			
				<linearGradient id="SVGID_9_" gradientUnits="userSpaceOnUse" x1="61.4253" y1="1413.0631" x2="61.4253" y2="1357.0569" gradientTransform="matrix(1 0 0 -1 0 1557.2766)">
				<stop  offset="0" style="stop-color:#655757"/>
				<stop  offset="0.1847" style="stop-color:#6A5B5B"/>
				<stop  offset="0.4404" style="stop-color:#766869"/>
				<stop  offset="0.4822" style="stop-color:#786B6C"/>
				<stop  offset="0.7311" style="stop-color:#766869"/>
				<stop  offset="0.9467" style="stop-color:#6E6060"/>
				<stop  offset="1" style="stop-color:#6B5D5D"/>
			</linearGradient>
			<polygon style="fill:url(#SVGID_9_);" points="56.383,186.704 61.765,144.214 66.517,146.59 65.838,200.22 56.334,196.147 			"/>
		</g>
		<linearGradient id="SVGID_10_" gradientUnits="userSpaceOnUse" x1="50.5634" y1="213.1181" x2="50.5634" y2="57.6585">
			<stop  offset="0" style="stop-color:#49332B"/>
			<stop  offset="0.0673" style="stop-color:#4E3830"/>
			<stop  offset="0.1609" style="stop-color:#5D463D"/>
			<stop  offset="0.2697" style="stop-color:#766056"/>
			<stop  offset="0.3891" style="stop-color:#9D8C83"/>
			<stop  offset="0.4822" style="stop-color:#C2B8B3"/>
			<stop  offset="0.6391" style="stop-color:#907E74"/>
			<stop  offset="0.8009" style="stop-color:#685148"/>
			<stop  offset="0.9267" style="stop-color:#513B32"/>
			<stop  offset="1" style="stop-color:#49332B"/>
		</linearGradient>
		<path style="fill:url(#SVGID_10_);" d="M65.838,213.118v-0.023c-7.152-0.98-12.898-35.394-12.898-77.706
			c0-42.313,5.746-76.727,12.898-77.707v-0.023l-17.999,0.097c-6.989,2.028-12.55,36.009-12.55,77.633
			c0,41.624,5.561,75.605,12.55,77.633L65.838,213.118z"/>
	</g>
	<g>
		<g>
			<path style="fill:#3A2D29;" d="M272.274,35.16c-12.924-1.629-28.925-2.593-46.251-2.593c-17.326,0-33.326,0.964-46.251,2.593
				c-19.099,2.407-31.479,6.267-31.479,10.619c0,7.297,34.801,13.212,77.73,13.212c42.929,0,77.73-5.915,77.73-13.212
				C303.753,41.427,291.373,37.567,272.274,35.16z"/>
			
				<linearGradient id="SVGID_11_" gradientUnits="userSpaceOnUse" x1="581.6768" y1="1655.2903" x2="581.6768" y2="1499.8306" gradientTransform="matrix(0 1 -1 0 1803.5839 -550.8073)">
				<stop  offset="0" style="stop-color:#655757"/>
				<stop  offset="0.0807" style="stop-color:#6B5C5B"/>
				<stop  offset="0.1927" style="stop-color:#7B6B69"/>
				<stop  offset="0.323" style="stop-color:#968783"/>
				<stop  offset="0.4661" style="stop-color:#BDB3AE"/>
				<stop  offset="0.4822" style="stop-color:#C2B8B3"/>
				<stop  offset="0.626" style="stop-color:#93817A"/>
				<stop  offset="0.7937" style="stop-color:#67524C"/>
				<stop  offset="0.924" style="stop-color:#4F3A36"/>
				<stop  offset="1" style="stop-color:#46322F"/>
			</linearGradient>
			<path style="fill:url(#SVGID_11_);" d="M148.294,46.144h0.023c0.98-7.152,35.394-12.898,77.706-12.898
				c42.313,0,76.727,5.746,77.707,12.898h0.023l-0.097-17.999c-2.028-6.989-36.009-12.55-77.633-12.55
				c-41.624,0-75.605,5.561-77.633,12.55L148.294,46.144z"/>
		</g>
		<g>
			<path style="fill:#3A2D29;" d="M272.274,235.617c-12.924,1.629-28.925,2.593-46.251,2.593c-17.326,0-33.326-0.964-46.251-2.593
				c-19.099-2.407-31.479-6.267-31.479-10.619c0-7.297,34.801-13.212,77.73-13.212c42.929,0,77.73,5.915,77.73,13.212
				C303.753,229.35,291.373,233.21,272.274,235.617z"/>
			
				<linearGradient id="SVGID_12_" gradientUnits="userSpaceOnUse" x1="2113.6768" y1="1655.2903" x2="2113.6768" y2="1499.8306" gradientTransform="matrix(0 -1 -1 0 1803.5839 2353.584)">
				<stop  offset="0" style="stop-color:#655757"/>
				<stop  offset="0.0807" style="stop-color:#6B5C5B"/>
				<stop  offset="0.1927" style="stop-color:#7B6B69"/>
				<stop  offset="0.323" style="stop-color:#968783"/>
				<stop  offset="0.4661" style="stop-color:#BDB3AE"/>
				<stop  offset="0.4822" style="stop-color:#C2B8B3"/>
				<stop  offset="0.626" style="stop-color:#93817A"/>
				<stop  offset="0.7937" style="stop-color:#67524C"/>
				<stop  offset="0.924" style="stop-color:#4F3A36"/>
				<stop  offset="1" style="stop-color:#46322F"/>
			</linearGradient>
			<path style="fill:url(#SVGID_12_);" d="M148.294,224.633h0.023c0.98,7.152,35.394,12.898,77.706,12.898
				c42.313,0,76.727-5.746,77.707-12.898h0.023l-0.097,17.999c-2.028,6.989-36.009,12.55-77.633,12.55
				c-41.624,0-75.605-5.561-77.633-12.55L148.294,224.633z"/>
		</g>
	</g>
	<linearGradient id="SVGID_13_" gradientUnits="userSpaceOnUse" x1="130.3863" y1="171.7075" x2="130.3863" y2="99.0691">
		<stop  offset="0" style="stop-color:#655757"/>
		<stop  offset="0.117" style="stop-color:#685959"/>
		<stop  offset="0.2097" style="stop-color:#716160"/>
		<stop  offset="0.294" style="stop-color:#7F706D"/>
		<stop  offset="0.3734" style="stop-color:#958783"/>
		<stop  offset="0.4486" style="stop-color:#B2A7A2"/>
		<stop  offset="0.4822" style="stop-color:#C2B8B3"/>
		<stop  offset="0.5171" style="stop-color:#B1A59F"/>
		<stop  offset="0.6202" style="stop-color:#87756D"/>
		<stop  offset="0.7218" style="stop-color:#69544E"/>
		<stop  offset="0.8205" style="stop-color:#55403C"/>
		<stop  offset="0.9148" style="stop-color:#4A3632"/>
		<stop  offset="1" style="stop-color:#46322F"/>
	</linearGradient>
	<ellipse style="fill:url(#SVGID_13_);" cx="130.386" cy="135.388" rx="11.484" ry="36.319"/>
	<linearGradient id="SVGID_14_" gradientUnits="userSpaceOnUse" x1="152.3929" y1="185.0302" x2="152.3929" y2="85.9161">
		<stop  offset="0" style="stop-color:#655757"/>
		<stop  offset="0.0807" style="stop-color:#6B5C5B"/>
		<stop  offset="0.1927" style="stop-color:#7B6B69"/>
		<stop  offset="0.323" style="stop-color:#968783"/>
		<stop  offset="0.4661" style="stop-color:#BDB3AE"/>
		<stop  offset="0.4822" style="stop-color:#C2B8B3"/>
		<stop  offset="0.626" style="stop-color:#93817A"/>
		<stop  offset="0.7937" style="stop-color:#67524C"/>
		<stop  offset="0.924" style="stop-color:#4F3A36"/>
		<stop  offset="1" style="stop-color:#46322F"/>
	</linearGradient>
	<path style="fill:url(#SVGID_14_);" d="M167.769,185.03h-30.752c-4.818,0-8.723-3.906-8.723-8.723V94.64
		c0-4.818,3.906-8.723,8.723-8.723h30.752c4.818,0,8.723,3.906,8.723,8.723v81.667C176.493,181.125,172.587,185.03,167.769,185.03z"
		/>
	<linearGradient id="SVGID_15_" gradientUnits="userSpaceOnUse" x1="225.3707" y1="228.0531" x2="225.3707" y2="42.4689">
		<stop  offset="0" style="stop-color:#3A2D29"/>
		<stop  offset="0.1477" style="stop-color:#4E3C35"/>
		<stop  offset="0.533" style="stop-color:#816354"/>
		<stop  offset="0.6404" style="stop-color:#74584C"/>
		<stop  offset="0.8594" style="stop-color:#523F37"/>
		<stop  offset="1" style="stop-color:#3A2D29"/>
	</linearGradient>
	<path style="fill:url(#SVGID_15_);" d="M305.477,135.261c0-51.048-25.775-92.462-57.646-92.785v-0.008h-46.417v0.053
		c-31.177,1.581-56.149,42.493-56.149,92.739s24.972,91.158,56.149,92.739v0.053h46.417v-0.008
		C279.702,227.723,305.477,186.309,305.477,135.261z"/>
</g>
</svg>
