<svg id="图层_1" data-name="图层 1" xmlns="http://www.w3.org/2000/svg" xmlns:xlink="http://www.w3.org/1999/xlink" viewBox="0 0 225.24 176"><defs><style>.cls-1{fill:url(#未命名的渐变_22);}.cls-2{fill:url(#未命名的渐变_22-2);}.cls-3{fill:url(#未命名的渐变_24);}.cls-4{fill:#666d78;}.cls-5{fill:#656d7a;}.cls-6{fill:#086db6;}.cls-7{fill:#43b3e3;}</style><linearGradient id="未命名的渐变_22" x1="33.62" y1="166" x2="56.62" y2="166" gradientUnits="userSpaceOnUse"><stop offset="0" stop-color="#736c6a"/><stop offset="0.3" stop-color="#d2d0cf"/><stop offset="0.53" stop-color="#fff"/><stop offset="0.72" stop-color="#d0cecd"/><stop offset="1" stop-color="#77706d"/></linearGradient><linearGradient id="未命名的渐变_22-2" x1="173.62" x2="196.62" xlink:href="#未命名的渐变_22"/><linearGradient id="未命名的渐变_24" y1="82" x2="225.24" y2="82" gradientUnits="userSpaceOnUse"><stop offset="0" stop-color="#ada9a8"/><stop offset="0.3" stop-color="#d2d0cf"/><stop offset="0.53" stop-color="#fff"/><stop offset="0.72" stop-color="#d0cecd"/><stop offset="1" stop-color="#afacab"/></linearGradient></defs><title>水池</title><rect class="cls-1" x="33.62" y="156" width="23" height="20"/><rect class="cls-2" x="173.62" y="156" width="23" height="20"/><rect class="cls-3" width="225.24" height="164"/><path class="cls-4" d="M240.62,33V89.11c-34.46-4.06-92.13,13.46-106,19.88-12.34,5.69-37.93-2.87-58.49-9.75l-4-1.36c-14.87-5-28.4.22-36.68,5V33Z" transform="translate(-25.38 -23)"/><path class="cls-5" d="M240.62,95.35V177H35.38V110.05l.07.1c6.67-4.48,20-11.26,34.65-6.39l4,1.35c17,5.68,35.63,11.93,50.06,11.93a31,31,0,0,0,13-2.42C149.2,109.07,207.47,91,240.62,95.35Z" transform="translate(-25.38 -23)"/><path class="cls-6" d="M240.62,93.79V177H35.38V107.87c7.21-4.84,21-11.62,36.18-6.54,22.35,7.44,49,17,62.78,10.64C147.53,105.88,209.1,87.21,240.62,93.79Z" transform="translate(-25.38 -23)"/><path class="cls-7" d="M240.62,89.11v6.24C207.47,91,149.2,109.07,137.18,114.62a31,31,0,0,1-13,2.42c-14.43,0-33.09-6.25-50.06-11.93l-4-1.35c-14.61-4.87-28,1.91-34.65,6.39l-.07-.1v-7.16c8.28-4.79,21.81-10,36.68-5l4,1.36c20.56,6.88,46.15,15.44,58.49,9.75C148.49,102.57,206.16,85.05,240.62,89.11Z" transform="translate(-25.38 -23)"/></svg>