<?xml version="1.0" encoding="iso-8859-1"?>
<!-- Generator: Adobe Illustrator 24.0.2, SVG Export Plug-In . SVG Version: 6.00 Build 0)  -->
<svg version="1.1" id="&#x56FE;&#x5C42;_1" xmlns="http://www.w3.org/2000/svg" xmlns:xlink="http://www.w3.org/1999/xlink" x="0px"
	 y="0px" viewBox="0 0 526.766 220.298" style="enable-background:new 0 0 526.766 220.298;" xml:space="preserve">
<g>
	<linearGradient id="SVGID_1_" gradientUnits="userSpaceOnUse" x1="337.1436" y1="148.3134" x2="337.1436" y2="112.5377">
		<stop  offset="0.0051" style="stop-color:#9EA0A7"/>
		<stop  offset="0.0389" style="stop-color:#ADAEB2"/>
		<stop  offset="0.1095" style="stop-color:#C5C5C8"/>
		<stop  offset="0.1857" style="stop-color:#D8D8D9"/>
		<stop  offset="0.269" style="stop-color:#E6E5E6"/>
		<stop  offset="0.365" style="stop-color:#EEEEED"/>
		<stop  offset="0.5025" style="stop-color:#F0F0F0"/>
		<stop  offset="1" style="stop-color:#767679"/>
	</linearGradient>
	<rect x="194.144" y="112.538" style="fill:url(#SVGID_1_);" width="286" height="35.776"/>
	<linearGradient id="SVGID_2_" gradientUnits="userSpaceOnUse" x1="220.6436" y1="163.1171" x2="220.6436" y2="97.7339">
		<stop  offset="0.0051" style="stop-color:#9EA0A7"/>
		<stop  offset="0.0389" style="stop-color:#ADAEB2"/>
		<stop  offset="0.1095" style="stop-color:#C5C5C8"/>
		<stop  offset="0.1857" style="stop-color:#D8D8D9"/>
		<stop  offset="0.269" style="stop-color:#E6E5E6"/>
		<stop  offset="0.365" style="stop-color:#EEEEED"/>
		<stop  offset="0.5025" style="stop-color:#F0F0F0"/>
		<stop  offset="1" style="stop-color:#767679"/>
	</linearGradient>
	<rect x="201.144" y="97.734" style="fill:url(#SVGID_2_);" width="39" height="65.383"/>
	<g>
		<linearGradient id="SVGID_3_" gradientUnits="userSpaceOnUse" x1="44.1436" y1="126.2106" x2="99.1436" y2="126.2106">
			<stop  offset="0.0051" style="stop-color:#DDDDDD"/>
			<stop  offset="0.2657" style="stop-color:#E9E9E9"/>
			<stop  offset="0.3934" style="stop-color:#F0F0F0"/>
			<stop  offset="1" style="stop-color:#767679"/>
		</linearGradient>
		<path style="fill:url(#SVGID_3_);" d="M87.144,215.033h-31c-6.6,0-12-5.4-12-12V49.388c0-6.6,5.4-12,12-12h31c6.6,0,12,5.4,12,12
			v153.645C99.144,209.633,93.744,215.033,87.144,215.033z"/>
		<linearGradient id="SVGID_4_" gradientUnits="userSpaceOnUse" x1="60.1436" y1="63.9115" x2="99.1436" y2="63.9115">
			<stop  offset="0.0051" style="stop-color:#F0F0F0"/>
			<stop  offset="0.0375" style="stop-color:#F0F0F0"/>
			<stop  offset="0.3934" style="stop-color:#F0F0F0"/>
			<stop  offset="1" style="stop-color:#767679"/>
		</linearGradient>
		<path style="fill:url(#SVGID_4_);" d="M87.144,121.276h-15c-6.6,0-12-5.4-12-12V18.547c0-6.6,5.4-12,12-12h15c6.6,0,12,5.4,12,12
			v90.729C99.144,115.876,93.744,121.276,87.144,121.276z"/>
	</g>
	<g>
		<ellipse style="fill:#E1E1E2;" cx="135.894" cy="130.426" rx="58.5" ry="52.43"/>
		<g>
			<rect x="105.144" y="69.669" style="fill:#7A887B;" width="65" height="122.131"/>
			<path style="fill:#636463;" d="M171.644,193.65h-68V67.818h68V193.65z M106.644,189.949h62V71.519h-62V189.949z"/>
		</g>
		<path style="opacity:0.33;fill:#FFFFFF;" d="M95.505,92.517c4.139,12.31,75.139,90.03,75.139,90.03s-32,16.037-35,16.037
			s-75-45.645-75-45.645l11-46.879L95.505,92.517z"/>
		<path style="fill:#19609B;" d="M141.894,45.304c-49.706,0-90,38.11-90,85.122c0,47.011,40.294,85.121,90,85.121
			s90-38.11,90-85.121C231.894,83.414,191.599,45.304,141.894,45.304z M141.894,182.855c-32.309,0-58.5-23.474-58.5-52.43
			s26.191-52.43,58.5-52.43s58.5,23.474,58.5,52.43S174.202,182.855,141.894,182.855z"/>
		
			<radialGradient id="SVGID_5_" cx="135.8936" cy="120.7423" r="80.1904" gradientTransform="matrix(1 0 0 0.8636 0 26.1584)" gradientUnits="userSpaceOnUse">
			<stop  offset="0.0051" style="stop-color:#5395D1"/>
			<stop  offset="0.127" style="stop-color:#4689C6"/>
			<stop  offset="0.358" style="stop-color:#3077B6"/>
			<stop  offset="0.57" style="stop-color:#206CAD"/>
			<stop  offset="0.7437" style="stop-color:#1A69AA"/>
			<stop  offset="1" style="stop-color:#5190CD"/>
		</radialGradient>
		<path style="fill:url(#SVGID_5_);" d="M135.894,45.304c-49.706,0-90,38.11-90,85.122c0,47.011,40.294,85.121,90,85.121
			s90-38.11,90-85.121C225.894,83.414,185.599,45.304,135.894,45.304z M135.894,182.855c-32.309,0-58.5-23.474-58.5-52.43
			s26.191-52.43,58.5-52.43s58.5,23.474,58.5,52.43S168.202,182.855,135.894,182.855z"/>
	</g>
</g>
</svg>
