<?xml version="1.0" encoding="iso-8859-1"?>
<!-- Generator: Adobe Illustrator 24.0.2, SVG Export Plug-In . SVG Version: 6.00 Build 0)  -->
<svg version="1.1" id="&#x56FE;&#x5C42;_1" xmlns="http://www.w3.org/2000/svg" xmlns:xlink="http://www.w3.org/1999/xlink" x="0px"
	 y="0px" viewBox="0 0 360 200" style="enable-background:new 0 0 360 200;" xml:space="preserve">
<g>
	<linearGradient id="SVGID_1_" gradientUnits="userSpaceOnUse" x1="178.1562" y1="162.3273" x2="178.1562" y2="45.3273">
		<stop  offset="0" style="stop-color:#0C5448"/>
		<stop  offset="0.0782" style="stop-color:#2C7161"/>
		<stop  offset="0.1589" style="stop-color:#438C7C"/>
		<stop  offset="0.2399" style="stop-color:#55A495"/>
		<stop  offset="0.3203" style="stop-color:#62B5A7"/>
		<stop  offset="0.3997" style="stop-color:#69C0B3"/>
		<stop  offset="0.4772" style="stop-color:#6CC3B7"/>
		<stop  offset="0.5912" style="stop-color:#6AC1B4"/>
		<stop  offset="0.677" style="stop-color:#64B9AB"/>
		<stop  offset="0.7535" style="stop-color:#5AAB9C"/>
		<stop  offset="0.8246" style="stop-color:#4B9788"/>
		<stop  offset="0.892" style="stop-color:#398071"/>
		<stop  offset="0.9557" style="stop-color:#226659"/>
		<stop  offset="1" style="stop-color:#095448"/>
	</linearGradient>
	<path style="fill:url(#SVGID_1_);" d="M317.59,45.327H38.723c-9.149,0-16.566,26.191-16.566,58.5s7.417,58.5,16.566,58.5H317.59
		c9.149,0,16.566-26.191,16.566-58.5S326.739,45.327,317.59,45.327z"/>
	<g>
		<path style="fill:#0B3A30;" d="M138.202,114.298c4.262,2.794,10.264,5.178,15.534,6.415c-0.871,0.871-2.062,2.429-2.612,3.483
			c-5.682-1.695-12.097-4.766-16.679-8.385v8.981h-4.216v-8.89c-4.628,3.712-11.043,6.874-16.588,8.523
			c-0.687-1.008-1.924-2.612-2.795-3.483c5.361-1.283,11.456-3.757,15.763-6.644h-14.526v-3.437h18.146v-2.794h4.216v2.794h18.284
			v3.437H138.202z M117.352,95.143c-1.054,1.054-2.154,2.017-3.345,2.979c-0.687-0.917-2.062-2.2-3.025-2.795
			c5.041-3.712,8.661-8.615,10.677-12.555l4.399,0.825c-0.733,1.283-1.512,2.612-2.428,3.895h8.981
			c-0.458-1.191-1.1-2.612-1.741-3.712l3.849-1.099c0.871,1.467,1.833,3.346,2.337,4.811h13.197v3.346h-14.389v2.565h12.418v2.887
			h-12.418v2.474h12.51v2.933h-12.51v2.612h15.671v3.346h-29.968v1.329h-4.215V95.143z M131.787,90.837h-10.219v2.565h10.219V90.837
			z M131.787,96.289h-10.219v2.474h10.219V96.289z M131.787,101.696h-10.219v2.612h10.219V101.696z"/>
		<path style="fill:#0B3A30;" d="M174.17,95.143c-2.154,12.052-7.286,20.85-13.701,25.524c-0.733-1.008-2.383-2.658-3.437-3.346
			c5.544-3.666,9.852-10.264,11.96-18.787h-10.448v-4.307h12.005l0.779-0.184L174.17,95.143z M196.211,93.86
			c-3.162,3.437-7.148,7.378-10.356,10.081c3.666,5.453,8.523,9.99,14.068,12.555c-1.008,0.871-2.474,2.613-3.162,3.896
			c-6.827-3.62-12.234-10.081-16.13-17.825v16.725c0,2.612-0.55,3.987-2.108,4.72c-1.558,0.779-3.987,0.963-7.561,0.963
			c-0.229-1.283-0.916-3.483-1.604-4.766c2.566,0.137,4.949,0.137,5.728,0.092c0.733,0,1.054-0.229,1.054-1.008V82.863h4.49v10.951
			c0.871,2.337,1.925,4.628,3.208,6.827c2.933-2.795,6.324-6.553,8.477-9.576L196.211,93.86z"/>
		<path style="fill:#0B3A30;" d="M233.095,105.408c3.345,2.52,7.881,4.582,12.372,5.636c-0.916,0.779-2.107,2.383-2.658,3.391
			c-0.733-0.229-1.374-0.458-2.108-0.687v10.86h-4.078v-0.963h-6.965v1.191h-3.895v-14.113h8.569
			c-2.52-1.512-4.811-3.345-6.645-5.315h-8.294c-1.787,1.879-3.941,3.711-6.415,5.315h9.027v13.885h-4.078v-0.963h-6.461v1.191
			h-3.895v-11.181c-0.825,0.413-1.65,0.779-2.566,1.146c-0.458-1.008-1.512-2.566-2.291-3.299c4.49-1.65,8.111-3.757,10.997-6.095
			h-10.081v-3.757h13.885c1.1-1.375,2.062-2.795,2.749-4.17h-13.564V84.788h14.847v12.144l3.299,0.641
			c-0.642,1.375-1.466,2.749-2.337,4.078h11.226c-1.42-0.917-3.253-1.787-4.857-2.383l1.879-1.787h-4.811V84.788h15.396V97.48
			h-9.119c2.108,0.871,4.399,2.016,5.682,3.07l-1.146,1.1h7.79v3.757H233.095z M217.515,88.408h-7.011v5.453h7.011V88.408z
			 M217.927,114.435h-6.461v5.544h6.461V114.435z M236.623,119.98v-5.544h-6.965v5.544H236.623z M229.841,93.86h7.424v-5.453h-7.424
			V93.86z"/>
	</g>
</g>
</svg>
